# Blender v2.93.1 OBJ File: 'superbox.blend'
# www.blender.org
mtllib superbox_blue.mtl
o blue_export_Cube.001
v 0.500000 0.500000 -0.500000
v 0.500000 -0.500000 -0.500000
v 0.500000 0.500000 0.500000
v 0.500000 -0.500000 0.500000
v -0.500000 0.500000 -0.500000
v -0.500000 -0.500000 -0.500000
v -0.500000 0.500000 0.500000
v -0.500000 -0.500000 0.500000
v 0.404438 0.500000 -0.404438
v -0.404438 0.500000 -0.404438
v -0.404438 0.500000 0.404438
v 0.404438 0.500000 0.404438
v -0.404438 -0.500000 -0.404438
v 0.404438 -0.500000 -0.404438
v 0.404438 -0.500000 0.404438
v -0.404438 -0.500000 0.404438
v 0.404438 -0.404438 0.500000
v 0.404438 0.404438 0.500000
v -0.404438 0.404438 0.500000
v -0.404438 -0.404438 0.500000
v 0.500000 -0.404438 -0.404438
v 0.500000 0.404438 -0.404438
v 0.500000 0.404438 0.404438
v 0.500000 -0.404438 0.404438
v -0.404438 -0.404438 -0.500000
v -0.404438 0.404438 -0.500000
v 0.404438 0.404438 -0.500000
v 0.404438 -0.404438 -0.500000
v -0.500000 -0.404438 0.404438
v -0.500000 0.404438 0.404438
v -0.500000 0.404438 -0.404438
v -0.500000 -0.404438 -0.404438
v -0.381136 0.471193 -0.381136
v 0.381136 0.471193 -0.381136
v 0.381136 0.471193 0.381136
v -0.381136 0.471193 0.381136
v 0.381136 -0.471193 -0.381136
v -0.381136 -0.471193 -0.381136
v -0.381136 -0.471193 0.381136
v 0.381136 -0.471193 0.381136
v 0.381136 0.381136 0.471193
v 0.381136 -0.381136 0.471193
v -0.381136 -0.381136 0.471193
v -0.381136 0.381136 0.471193
v 0.471193 0.381136 -0.381136
v 0.471193 -0.381136 -0.381136
v 0.471193 -0.381136 0.381136
v 0.471193 0.381136 0.381136
v -0.381136 0.381136 -0.471193
v -0.381136 -0.381136 -0.471193
v 0.381136 -0.381136 -0.471193
v 0.381136 0.381136 -0.471193
v -0.471193 -0.381136 0.381136
v -0.471193 0.381136 0.381136
v -0.471193 -0.381136 -0.381136
v -0.471193 0.381136 -0.381136
vt 0.144531 0.029297
vt 0.144531 0.029297
vt 0.144531 0.029297
vt 0.144531 0.029297
vt 0.144531 0.029297
vt 0.144531 0.029297
vt 0.144531 0.029297
vt 0.144531 0.029297
vt 0.144531 0.029297
vt 0.144531 0.029297
vt 0.144531 0.029297
vt 0.144531 0.029297
vt 0.144531 0.029297
vt 0.144531 0.029297
vt 0.144531 0.029297
vt 0.144531 0.029297
vt 0.144531 0.029297
vt 0.144531 0.029297
vt 0.023438 0.023438
vt 0.023438 0.023438
vt 0.023438 0.023438
vt 0.023438 0.023438
vt 0.023438 0.023438
vt 0.023438 0.023438
vt 0.023438 0.023438
vt 0.023438 0.023438
vt 0.023438 0.023438
vt 0.023438 0.023438
vt 0.023438 0.023438
vt 0.023438 0.023438
vt 0.023438 0.023438
vt 0.023438 0.023438
vt 0.023438 0.023438
vt 0.023438 0.023438
vt 0.023438 0.023438
vt 0.023438 0.023438
vt 0.023438 0.023438
vt 0.023438 0.023438
vt 0.023438 0.023438
vt 0.023438 0.023438
vt 0.023438 0.023438
vt 0.023438 0.023438
vt 0.023438 0.023438
vt 0.023438 0.023438
vt 0.023438 0.023438
vt 0.023438 0.023438
vt 0.023438 0.023438
vt 0.023438 0.023438
vt 0.023438 0.023438
vt 0.023438 0.023438
vt 0.980469 0.345703
vt 0.980469 0.345703
vt 0.980469 0.345703
vt 0.980469 0.345703
vt 0.980469 0.345703
vt 0.980469 0.345703
vt 0.980469 0.345703
vt 0.980469 0.345703
vt 0.980469 0.345703
vt 0.980469 0.345703
vt 0.980469 0.345703
vt 0.980469 0.345703
vt 0.980469 0.345703
vt 0.980469 0.345703
vt 0.980469 0.345703
vt 0.980469 0.345703
vt 0.980469 0.345703
vt 0.980469 0.345703
vt 0.144531 0.029297
vt 0.144531 0.029297
vt 0.144531 0.029297
vt 0.144531 0.029297
vt 0.144531 0.029297
vt 0.144531 0.029297
vt 0.144531 0.029297
vt 0.144531 0.029297
vt 0.144531 0.029297
vt 0.144531 0.029297
vt 0.144531 0.029297
vt 0.144531 0.029297
vt 0.144531 0.029297
vt 0.144531 0.029297
vt 0.144531 0.029297
vt 0.144531 0.029297
vt 0.144531 0.029297
vt 0.144531 0.029297
vt 0.144531 0.029297
vt 0.144531 0.029297
vt 0.144531 0.029297
vt 0.144531 0.029297
vt 0.144531 0.029297
vt 0.144531 0.029297
vt 0.144531 0.029297
vt 0.144531 0.029297
vt 0.144531 0.029297
vt 0.144531 0.029297
vt 0.144531 0.029297
vt 0.144531 0.029297
vt 0.980469 0.345703
vt 0.980469 0.345703
vt 0.980469 0.345703
vt 0.980469 0.345703
vt 0.980469 0.345703
vt 0.980469 0.345703
vn 0.0000 -0.7775 -0.6289
vn 0.7775 0.0000 0.6289
vn -0.6289 0.7775 0.0000
vn 0.6289 -0.7775 0.0000
vn 0.0000 -0.6289 -0.7775
vn 0.0000 0.7775 -0.6289
vn 0.0000 1.0000 0.0000
vn 0.0000 -1.0000 0.0000
vn -0.0000 0.0000 1.0000
vn 1.0000 0.0000 0.0000
vn 0.0000 0.0000 -1.0000
vn -1.0000 0.0000 0.0000
vn 0.6289 0.0000 -0.7775
vn -0.6289 -0.7775 0.0000
vn -0.7775 0.0000 -0.6289
vn -0.6289 0.0000 0.7775
vn 0.0000 0.6289 0.7775
vn 0.0000 -0.6289 0.7775
vn -0.7775 0.6289 0.0000
vn -0.7775 0.0000 0.6289
vn 0.7775 -0.6289 0.0000
vn 0.6289 0.0000 0.7775
vn 0.7775 0.6289 0.0000
vn 0.0000 0.7775 0.6289
vn 0.7775 0.0000 -0.6289
vn -0.7775 -0.6289 0.0000
vn 0.6289 0.7775 0.0000
vn -0.6289 0.0000 -0.7775
vn 0.0000 0.6289 -0.7775
vn 0.0000 -0.7775 0.6289
usemtl Material.001
s off
f 27/1/1 49/2/1 26/3/1
f 20/4/2 44/5/2 19/6/2
f 29/7/3 55/8/3 32/9/3
f 23/10/4 45/11/4 22/12/4
f 16/13/5 40/14/5 15/15/5
f 25/16/6 51/17/6 28/18/6
f 5/19/7 9/20/7 1/21/7
f 7/22/7 10/23/7 5/19/7
f 3/24/7 11/25/7 7/22/7
f 1/21/7 12/26/7 3/24/7
f 2/27/8 13/28/8 6/29/8
f 4/30/8 14/31/8 2/27/8
f 8/32/8 15/33/8 4/30/8
f 6/29/8 16/34/8 8/32/8
f 3/24/9 17/35/9 4/30/9
f 7/22/9 18/36/9 3/24/9
f 8/32/9 19/37/9 7/22/9
f 4/30/9 20/38/9 8/32/9
f 1/21/10 21/39/10 2/27/10
f 3/24/10 22/40/10 1/21/10
f 4/30/10 23/41/10 3/24/10
f 2/27/10 24/42/10 4/30/10
f 5/19/11 25/43/11 6/29/11
f 1/21/11 26/44/11 5/19/11
f 2/27/11 27/45/11 1/21/11
f 6/29/11 28/46/11 2/27/11
f 7/22/12 29/47/12 8/32/12
f 5/19/12 30/48/12 7/22/12
f 6/29/12 31/49/12 5/19/12
f 8/32/12 32/50/12 6/29/12
f 33/51/7 35/52/7 34/53/7
f 37/54/8 39/55/8 38/56/8
f 41/57/9 43/58/9 42/59/9
f 45/60/10 47/61/10 46/62/10
f 49/63/11 51/64/11 50/65/11
f 54/66/12 55/67/12 53/68/12
f 24/69/13 48/70/13 23/10/13
f 31/71/14 54/72/14 30/73/14
f 28/18/15 52/74/15 27/1/15
f 32/9/16 56/75/16 31/71/16
f 10/76/17 34/77/17 9/78/17
f 14/79/18 38/80/18 13/81/18
f 9/78/19 35/82/19 12/83/19
f 18/84/20 42/85/20 17/86/20
f 13/81/21 39/87/21 16/13/21
f 22/12/22 46/88/22 21/89/22
f 11/90/23 33/91/23 10/76/23
f 17/86/24 43/92/24 20/4/24
f 26/3/25 50/93/25 25/16/25
f 15/15/26 37/94/26 14/79/26
f 21/89/27 47/95/27 24/69/27
f 30/73/28 53/96/28 29/7/28
f 12/83/29 36/97/29 11/90/29
f 19/6/30 41/98/30 18/84/30
f 27/1/1 52/74/1 49/2/1
f 20/4/2 43/92/2 44/5/2
f 29/7/3 53/96/3 55/8/3
f 23/10/4 48/70/4 45/11/4
f 16/13/5 39/87/5 40/14/5
f 25/16/6 50/93/6 51/17/6
f 5/19/7 10/23/7 9/20/7
f 7/22/7 11/25/7 10/23/7
f 3/24/7 12/26/7 11/25/7
f 1/21/7 9/20/7 12/26/7
f 2/27/8 14/31/8 13/28/8
f 4/30/8 15/33/8 14/31/8
f 8/32/8 16/34/8 15/33/8
f 6/29/8 13/28/8 16/34/8
f 3/24/9 18/36/9 17/35/9
f 7/22/9 19/37/9 18/36/9
f 8/32/9 20/38/9 19/37/9
f 4/30/9 17/35/9 20/38/9
f 1/21/10 22/40/10 21/39/10
f 3/24/10 23/41/10 22/40/10
f 4/30/10 24/42/10 23/41/10
f 2/27/10 21/39/10 24/42/10
f 5/19/11 26/44/11 25/43/11
f 1/21/11 27/45/11 26/44/11
f 2/27/11 28/46/11 27/45/11
f 6/29/11 25/43/11 28/46/11
f 7/22/12 30/48/12 29/47/12
f 5/19/12 31/49/12 30/48/12
f 6/29/12 32/50/12 31/49/12
f 8/32/12 29/47/12 32/50/12
f 33/51/7 36/99/7 35/52/7
f 37/54/8 40/100/8 39/55/8
f 41/57/9 44/101/9 43/58/9
f 45/60/10 48/102/10 47/61/10
f 49/63/11 52/103/11 51/64/11
f 54/66/12 56/104/12 55/67/12
f 24/69/13 47/95/13 48/70/13
f 31/71/14 56/75/14 54/72/14
f 28/18/15 51/17/15 52/74/15
f 32/9/16 55/8/16 56/75/16
f 10/76/17 33/91/17 34/77/17
f 14/79/18 37/94/18 38/80/18
f 9/78/19 34/77/19 35/82/19
f 18/84/20 41/98/20 42/85/20
f 13/81/21 38/80/21 39/87/21
f 22/12/22 45/11/22 46/88/22
f 11/90/23 36/97/23 33/91/23
f 17/86/24 42/85/24 43/92/24
f 26/3/25 49/2/25 50/93/25
f 15/15/26 40/14/26 37/94/26
f 21/89/27 46/88/27 47/95/27
f 30/73/28 54/72/28 53/96/28
f 12/83/29 35/82/29 36/97/29
f 19/6/30 44/5/30 41/98/30
