# Blender v2.93.1 OBJ File: 'superbox.blend'
# www.blender.org
mtllib coin.mtl
o coin_export_Cylinder.003
v 0.000000 0.500000 -0.125000
v 0.000000 0.500000 0.125000
v 0.250000 0.433013 -0.125000
v 0.250000 0.433013 0.125000
v 0.433013 0.250000 -0.125000
v 0.433013 0.250000 0.125000
v 0.500000 -0.000000 -0.125000
v 0.500000 -0.000000 0.125000
v 0.433013 -0.250000 -0.125000
v 0.433013 -0.250000 0.125000
v 0.250000 -0.433013 -0.125000
v 0.250000 -0.433013 0.125000
v -0.000000 -0.500000 -0.125000
v -0.000000 -0.500000 0.125000
v -0.250000 -0.433013 -0.125000
v -0.250000 -0.433013 0.125000
v -0.433013 -0.250000 -0.125000
v -0.433013 -0.250000 0.125000
v -0.500000 0.000000 -0.125000
v -0.500000 0.000000 0.125000
v -0.433013 0.250000 -0.125000
v -0.433013 0.250000 0.125000
v -0.250000 0.433013 -0.125000
v -0.250000 0.433013 0.125000
v 0.196738 0.340760 0.125000
v 0.000000 0.393476 0.125000
v -0.196738 0.340760 0.125000
v -0.340760 0.196738 0.125000
v -0.393476 0.000000 0.125000
v -0.340760 -0.196738 0.125000
v -0.196738 -0.340760 0.125000
v -0.000000 -0.393476 0.125000
v 0.196738 -0.340760 0.125000
v 0.340760 -0.196738 0.125000
v 0.393476 -0.000000 0.125000
v 0.340760 0.196738 0.125000
v 0.000000 0.393476 -0.125000
v 0.196738 0.340760 -0.125000
v 0.340760 0.196738 -0.125000
v 0.393476 -0.000000 -0.125000
v 0.340760 -0.196738 -0.125000
v 0.196738 -0.340760 -0.125000
v -0.000000 -0.393476 -0.125000
v -0.196738 -0.340760 -0.125000
v -0.340760 -0.196738 -0.125000
v -0.393476 0.000000 -0.125000
v -0.340760 0.196738 -0.125000
v -0.196738 0.340760 -0.125000
v 0.196738 0.340760 0.125000
v 0.000000 0.393476 0.125000
v 0.340760 0.196738 0.125000
v -0.196738 0.340760 0.125000
v -0.340760 0.196738 0.125000
v -0.393476 0.000000 0.125000
v -0.340760 -0.196738 0.125000
v -0.196738 -0.340760 0.125000
v -0.000000 -0.393476 0.125000
v 0.196738 -0.340760 0.125000
v 0.340760 -0.196738 0.125000
v 0.393476 -0.000000 0.125000
v 0.000000 0.393476 -0.075000
v 0.196738 0.340760 -0.075000
v -0.196738 0.340760 -0.075000
v 0.340760 0.196738 -0.075000
v 0.393476 -0.000000 -0.075000
v 0.340760 -0.196738 -0.075000
v 0.196738 -0.340760 -0.075000
v -0.000000 -0.393476 -0.075000
v -0.196738 -0.340760 -0.075000
v -0.340760 -0.196738 -0.075000
v -0.393476 0.000000 -0.075000
v -0.340760 0.196738 -0.075000
v 0.196738 0.340760 0.075000
v 0.000000 0.393476 0.075000
v 0.340760 0.196738 0.075000
v -0.196738 0.340760 0.075000
v -0.340760 0.196738 0.075000
v -0.393476 0.000000 0.075000
v -0.340760 -0.196738 0.075000
v -0.196738 -0.340760 0.075000
v -0.000000 -0.393476 0.075000
v 0.196738 -0.340760 0.075000
v 0.340760 -0.196738 0.075000
v 0.393476 -0.000000 0.075000
vt 0.974931 0.832284
vt 0.974931 0.832284
vt 0.974931 0.832284
vt 0.952131 0.849725
vt 0.952131 0.849725
vt 0.952131 0.849725
vt 0.952131 0.849725
vt 0.952131 0.849725
vt 0.952131 0.849725
vt 0.952131 0.849725
vt 0.952131 0.849725
vt 0.952131 0.849725
vt 0.952131 0.849725
vt 0.952131 0.849725
vt 0.952131 0.849725
vt 0.952131 0.849725
vt 0.952131 0.849725
vt 0.952131 0.849725
vt 0.952131 0.849725
vt 0.952131 0.849725
vt 0.952131 0.849725
vt 0.952131 0.849725
vt 0.952131 0.849725
vt 0.952131 0.849725
vt 0.952131 0.849725
vt 0.952131 0.849725
vt 0.952131 0.849725
vt 0.952131 0.849725
vt 0.952131 0.849725
vt 0.952131 0.849725
vt 0.952131 0.849725
vt 0.952131 0.849725
vt 0.952131 0.849725
vt 0.952131 0.849725
vt 0.952131 0.849725
vt 0.952131 0.849725
vt 0.952131 0.849725
vt 0.952131 0.849725
vt 0.952131 0.849725
vt 0.952131 0.849725
vt 0.952131 0.849725
vt 0.952131 0.849725
vt 0.952131 0.849725
vt 0.952131 0.849725
vt 0.952131 0.849725
vt 0.952131 0.849725
vt 0.952131 0.849725
vt 0.952131 0.849725
vt 0.952131 0.849725
vt 0.952131 0.849725
vt 0.952131 0.849725
vt 0.955245 0.834745
vt 0.955245 0.834745
vt 0.955245 0.834745
vt 0.974931 0.832284
vt 0.974931 0.832284
vt 0.974931 0.832284
vt 0.974931 0.832284
vt 0.974931 0.832284
vt 0.974931 0.832284
vt 0.974931 0.832284
vt 0.974931 0.832284
vt 0.974931 0.832284
vt 0.974931 0.832284
vt 0.974931 0.832284
vt 0.974931 0.832284
vt 0.974931 0.832284
vt 0.974931 0.832284
vt 0.974931 0.832284
vt 0.974931 0.832284
vt 0.974931 0.832284
vt 0.974931 0.832284
vt 0.974931 0.832284
vt 0.974931 0.832284
vt 0.974931 0.832284
vt 0.955245 0.834745
vt 0.955245 0.834745
vt 0.955245 0.834745
vt 0.955245 0.834745
vt 0.955245 0.834745
vt 0.955245 0.834745
vt 0.955245 0.834745
vt 0.955245 0.834745
vt 0.955245 0.834745
vt 0.955245 0.834745
vt 0.955245 0.834745
vt 0.955245 0.834745
vt 0.955245 0.834745
vt 0.955245 0.834745
vt 0.955245 0.834745
vt 0.955245 0.834745
vt 0.955245 0.834745
vt 0.955245 0.834745
vt 0.955245 0.834745
vt 0.955245 0.834745
vt 0.955245 0.834745
vt 0.966318 0.850740
vt 0.966318 0.850740
vt 0.966318 0.850740
vt 0.966318 0.850740
vt 0.966318 0.850740
vt 0.966318 0.850740
vt 0.966318 0.850740
vt 0.966318 0.850740
vt 0.966318 0.850740
vt 0.966318 0.850740
vt 0.966318 0.850740
vt 0.966318 0.850740
vt 0.966318 0.850740
vt 0.966318 0.850740
vt 0.966318 0.850740
vt 0.966318 0.850740
vt 0.966318 0.850740
vt 0.966318 0.850740
vt 0.966318 0.850740
vt 0.966318 0.850740
vt 0.966318 0.850740
vt 0.974931 0.832284
vt 0.974931 0.832284
vt 0.974931 0.832284
vt 0.966318 0.850740
vt 0.966318 0.850740
vt 0.966318 0.850740
vt 0.974931 0.832284
vt 0.974931 0.832284
vt 0.974931 0.832284
vt 0.974931 0.832284
vt 0.974931 0.832284
vt 0.974931 0.832284
vt 0.974931 0.832284
vt 0.974931 0.832284
vt 0.974931 0.832284
vt 0.974931 0.832284
vt 0.974931 0.832284
vt 0.974931 0.832284
vt 0.974931 0.832284
vt 0.974931 0.832284
vt 0.974931 0.832284
vt 0.974931 0.832284
vt 0.974931 0.832284
vt 0.974931 0.832284
vt 0.974931 0.832284
vt 0.974931 0.832284
vt 0.974931 0.832284
vt 0.974931 0.832284
vt 0.974931 0.832284
vt 0.974931 0.832284
vt 0.974931 0.832284
vt 0.974931 0.832284
vt 0.974931 0.832284
vt 0.974931 0.832284
vt 0.974931 0.832284
vt 0.974931 0.832284
vt 0.974931 0.832284
vt 0.974931 0.832284
vt 0.974931 0.832284
vn 0.0000 0.0000 1.0000
vn 0.0000 0.0000 -1.0000
vn 0.0000 0.7571 0.6532
vn 0.3786 0.6557 -0.6532
vn 0.0000 0.7571 -0.6532
vn 0.3786 0.6557 0.6532
vn 0.6557 0.3786 -0.6532
vn 0.6557 0.3786 0.6532
vn 0.7571 0.0000 -0.6532
vn 0.7571 0.0000 0.6532
vn 0.6557 -0.3786 -0.6532
vn 0.6557 -0.3786 0.6532
vn 0.3786 -0.6557 -0.6532
vn 0.3786 -0.6557 0.6532
vn 0.0000 -0.7571 -0.6532
vn 0.0000 -0.7571 0.6532
vn -0.3786 -0.6557 -0.6532
vn -0.3786 -0.6557 0.6532
vn -0.6557 -0.3786 -0.6532
vn -0.6557 -0.3786 0.6532
vn -0.7571 0.0000 -0.6532
vn -0.7571 0.0000 0.6532
vn -0.6557 0.3786 -0.6532
vn -0.5523 -0.3189 -0.7703
vn -0.3189 -0.5523 -0.7703
vn -0.6557 0.3786 0.6532
vn -0.3786 0.6557 -0.6532
vn -0.3786 0.6557 0.6532
vn 0.0000 -0.6947 0.7193
vn -0.3474 -0.6016 0.7192
vn 0.5523 -0.3189 -0.7703
vn 0.6377 0.0000 -0.7703
vn -0.6377 0.0000 -0.7703
vn 0.3189 -0.5523 -0.7703
vn -0.5523 0.3189 -0.7703
vn -0.3189 0.5523 -0.7703
vn 0.0000 0.6377 -0.7703
vn 0.3189 0.5523 -0.7703
vn 0.0000 -0.6377 -0.7703
vn 0.5523 0.3189 -0.7703
vn 0.0000 0.6947 0.7192
vn 0.3474 0.6016 0.7192
vn 0.6947 0.0000 0.7192
vn 0.6016 -0.3473 0.7193
vn -0.6016 -0.3474 0.7192
vn -0.6947 0.0000 0.7192
vn -0.3473 0.6016 0.7193
vn 0.6016 0.3473 0.7193
vn 0.3474 -0.6016 0.7192
vn -0.6016 0.3474 0.7192
usemtl Material.006
s off
f 36/1/1 60/2/1 35/3/1
f 4/4/1 26/5/1 25/6/1
f 2/7/1 27/8/1 26/5/1
f 22/9/1 27/8/1 24/10/1
f 22/9/1 29/11/1 28/12/1
f 18/13/1 29/11/1 20/14/1
f 16/15/1 30/16/1 18/13/1
f 14/17/1 31/18/1 16/15/1
f 14/17/1 33/19/1 32/20/1
f 10/21/1 33/19/1 12/22/1
f 10/21/1 35/23/1 34/24/1
f 8/25/1 36/26/1 35/23/1
f 4/4/1 36/26/1 6/27/1
f 3/28/2 37/29/2 1/30/2
f 3/28/2 39/31/2 38/32/2
f 7/33/2 39/31/2 5/34/2
f 9/35/2 40/36/2 7/33/2
f 9/35/2 42/37/2 41/38/2
f 13/39/2 42/37/2 11/40/2
f 15/41/2 43/42/2 13/39/2
f 17/43/2 44/44/2 15/41/2
f 19/45/2 45/46/2 17/43/2
f 21/47/2 46/48/2 19/45/2
f 21/47/2 48/49/2 47/50/2
f 23/51/2 37/29/2 48/49/2
f 65/52/2 69/53/2 63/54/2
f 29/55/1 53/56/1 28/57/1
f 30/58/1 54/59/1 29/55/1
f 31/60/1 55/61/1 30/58/1
f 32/62/1 56/63/1 31/60/1
f 26/64/1 49/65/1 25/66/1
f 33/67/1 57/68/1 32/62/1
f 25/66/1 51/69/1 36/1/1
f 34/70/1 58/71/1 33/67/1
f 27/72/1 50/73/1 26/64/1
f 35/3/1 59/74/1 34/70/1
f 28/57/1 52/75/1 27/72/1
f 74/76/1 77/77/1 81/78/1
f 36/1/1 51/69/1 60/2/1
f 4/4/1 2/7/1 26/5/1
f 2/7/1 24/10/1 27/8/1
f 22/9/1 28/12/1 27/8/1
f 22/9/1 20/14/1 29/11/1
f 18/13/1 30/16/1 29/11/1
f 16/15/1 31/18/1 30/16/1
f 14/17/1 32/20/1 31/18/1
f 14/17/1 12/22/1 33/19/1
f 10/21/1 34/24/1 33/19/1
f 10/21/1 8/25/1 35/23/1
f 8/25/1 6/27/1 36/26/1
f 4/4/1 25/6/1 36/26/1
f 3/28/2 38/32/2 37/29/2
f 3/28/2 5/34/2 39/31/2
f 7/33/2 40/36/2 39/31/2
f 9/35/2 41/38/2 40/36/2
f 9/35/2 11/40/2 42/37/2
f 13/39/2 43/42/2 42/37/2
f 15/41/2 44/44/2 43/42/2
f 17/43/2 45/46/2 44/44/2
f 19/45/2 46/48/2 45/46/2
f 21/47/2 47/50/2 46/48/2
f 21/47/2 23/51/2 48/49/2
f 23/51/2 1/30/2 37/29/2
f 63/54/2 61/79/2 62/80/2
f 62/80/2 64/81/2 65/52/2
f 65/52/2 66/82/2 67/83/2
f 67/83/2 68/84/2 65/52/2
f 68/84/2 69/53/2 65/52/2
f 69/53/2 70/85/2 71/86/2
f 71/86/2 72/87/2 69/53/2
f 72/87/2 63/54/2 69/53/2
f 63/54/2 62/80/2 65/52/2
f 29/55/1 54/59/1 53/56/1
f 30/58/1 55/61/1 54/59/1
f 31/60/1 56/63/1 55/61/1
f 32/62/1 57/68/1 56/63/1
f 26/64/1 50/73/1 49/65/1
f 33/67/1 58/71/1 57/68/1
f 25/66/1 49/65/1 51/69/1
f 34/70/1 59/74/1 58/71/1
f 27/72/1 52/75/1 50/73/1
f 35/3/1 60/2/1 59/74/1
f 28/57/1 53/56/1 52/75/1
f 75/88/1 73/89/1 74/76/1
f 74/76/1 76/90/1 77/77/1
f 77/77/1 78/91/1 79/92/1
f 79/92/1 80/93/1 77/77/1
f 80/93/1 81/78/1 77/77/1
f 81/78/1 82/94/1 83/95/1
f 83/95/1 84/96/1 81/78/1
f 84/96/1 75/88/1 81/78/1
f 75/88/1 74/76/1 81/78/1
s 1
f 2/97/3 3/98/4 1/99/5
f 4/100/6 5/101/7 3/98/4
f 6/102/8 7/103/9 5/101/7
f 8/104/10 9/105/11 7/103/9
f 10/106/12 11/107/13 9/105/11
f 12/108/14 13/109/15 11/107/13
f 14/110/16 15/111/17 13/109/15
f 16/112/18 17/113/19 15/111/17
f 18/114/20 19/115/21 17/113/19
f 20/116/22 21/117/23 19/115/21
f 39/118/24 62/119/17 38/120/25
f 22/121/26 23/122/27 21/117/23
f 24/123/28 1/99/5 23/122/27
f 50/73/29 73/124/18 49/65/30
f 47/125/31 71/126/9 46/127/32
f 40/128/33 64/129/19 39/118/24
f 48/130/34 72/131/11 47/125/31
f 41/132/35 65/133/21 40/128/33
f 42/134/36 66/135/23 41/132/35
f 43/136/37 67/137/27 42/134/36
f 44/138/38 68/139/5 43/136/37
f 38/120/25 61/140/15 37/141/39
f 45/142/40 69/143/4 44/138/38
f 37/141/39 63/144/13 48/130/34
f 46/127/32 70/145/7 45/142/40
f 57/68/41 80/146/6 56/63/42
f 54/59/43 77/147/12 53/56/44
f 51/69/45 84/148/22 60/2/46
f 49/65/30 75/149/20 51/69/45
f 58/71/47 81/150/3 57/68/41
f 55/61/48 78/151/10 54/59/43
f 52/75/49 74/152/16 50/73/29
f 59/74/50 82/153/28 58/71/47
f 56/63/42 79/154/8 55/61/48
f 53/56/44 76/155/14 52/75/49
f 60/2/46 83/156/26 59/74/50
f 2/97/3 4/100/6 3/98/4
f 4/100/6 6/102/8 5/101/7
f 6/102/8 8/104/10 7/103/9
f 8/104/10 10/106/12 9/105/11
f 10/106/12 12/108/14 11/107/13
f 12/108/14 14/110/16 13/109/15
f 14/110/16 16/112/18 15/111/17
f 16/112/18 18/114/20 17/113/19
f 18/114/20 20/116/22 19/115/21
f 20/116/22 22/121/26 21/117/23
f 39/118/24 64/129/19 62/119/17
f 22/121/26 24/123/28 23/122/27
f 24/123/28 2/97/3 1/99/5
f 50/73/29 74/152/16 73/124/18
f 47/125/31 72/131/11 71/126/9
f 40/128/33 65/133/21 64/129/19
f 48/130/34 63/144/13 72/131/11
f 41/132/35 66/135/23 65/133/21
f 42/134/36 67/137/27 66/135/23
f 43/136/37 68/139/5 67/137/27
f 44/138/38 69/143/4 68/139/5
f 38/120/25 62/119/17 61/140/15
f 45/142/40 70/145/7 69/143/4
f 37/141/39 61/140/15 63/144/13
f 46/127/32 71/126/9 70/145/7
f 57/68/41 81/150/3 80/146/6
f 54/59/43 78/151/10 77/147/12
f 51/69/45 75/149/20 84/148/22
f 49/65/30 73/124/18 75/149/20
f 58/71/47 82/153/28 81/150/3
f 55/61/48 79/154/8 78/151/10
f 52/75/49 76/155/14 74/152/16
f 59/74/50 83/156/26 82/153/28
f 56/63/42 80/146/6 79/154/8
f 53/56/44 77/147/12 76/155/14
f 60/2/46 84/148/22 83/156/26
