# Blender v2.93.1 OBJ File: 'superbox.blend'
# www.blender.org
mtllib coin.mtl
o coin_export_Cylinder.002
v 0.000000 0.500000 -0.125000
v 0.000000 0.500000 0.125000
v 0.250000 0.433013 -0.125000
v 0.250000 0.433013 0.125000
v 0.433013 0.250000 -0.125000
v 0.433013 0.250000 0.125000
v 0.500000 -0.000000 -0.125000
v 0.500000 -0.000000 0.125000
v 0.433013 -0.250000 -0.125000
v 0.433013 -0.250000 0.125000
v 0.250000 -0.433013 -0.125000
v 0.250000 -0.433013 0.125000
v -0.000000 -0.500000 -0.125000
v -0.000000 -0.500000 0.125000
v -0.250000 -0.433013 -0.125000
v -0.250000 -0.433013 0.125000
v -0.433013 -0.250000 -0.125000
v -0.433013 -0.250000 0.125000
v -0.500000 0.000000 -0.125000
v -0.500000 0.000000 0.125000
v -0.433013 0.250000 -0.125000
v -0.433013 0.250000 0.125000
v -0.250000 0.433013 -0.125000
v -0.250000 0.433013 0.125000
v 0.196738 0.340760 0.125000
v 0.000000 0.393476 0.125000
v -0.196738 0.340760 0.125000
v -0.340760 0.196738 0.125000
v -0.393476 0.000000 0.125000
v -0.340760 -0.196738 0.125000
v -0.196738 -0.340760 0.125000
v -0.000000 -0.393476 0.125000
v 0.196738 -0.340760 0.125000
v 0.340760 -0.196738 0.125000
v 0.393476 -0.000000 0.125000
v 0.340760 0.196738 0.125000
v 0.000000 0.393476 -0.125000
v 0.196738 0.340760 -0.125000
v 0.340760 0.196738 -0.125000
v 0.393476 -0.000000 -0.125000
v 0.340760 -0.196738 -0.125000
v 0.196738 -0.340760 -0.125000
v -0.000000 -0.393476 -0.125000
v -0.196738 -0.340760 -0.125000
v -0.340760 -0.196738 -0.125000
v -0.393476 0.000000 -0.125000
v -0.340760 0.196738 -0.125000
v -0.196738 0.340760 -0.125000
v 0.196738 0.340760 0.125000
v 0.000000 0.393476 0.125000
v 0.340760 0.196738 0.125000
v -0.196738 0.340760 0.125000
v -0.340760 0.196738 0.125000
v -0.393476 0.000000 0.125000
v -0.340760 -0.196738 0.125000
v -0.196738 -0.340760 0.125000
v -0.000000 -0.393476 0.125000
v 0.196738 -0.340760 0.125000
v 0.340760 -0.196738 0.125000
v 0.393476 -0.000000 0.125000
v 0.000000 0.393476 -0.075000
v 0.196738 0.340760 -0.075000
v -0.196738 0.340760 -0.075000
v 0.340760 0.196738 -0.075000
v 0.393476 -0.000000 -0.075000
v 0.340760 -0.196738 -0.075000
v 0.196738 -0.340760 -0.075000
v -0.000000 -0.393476 -0.075000
v -0.196738 -0.340760 -0.075000
v -0.340760 -0.196738 -0.075000
v -0.393476 0.000000 -0.075000
v -0.340760 0.196738 -0.075000
v 0.196738 0.340760 0.075000
v 0.000000 0.393476 0.075000
v 0.340760 0.196738 0.075000
v -0.196738 0.340760 0.075000
v -0.340760 0.196738 0.075000
v -0.393476 0.000000 0.075000
v -0.340760 -0.196738 0.075000
v -0.196738 -0.340760 0.075000
v -0.000000 -0.393476 0.075000
v 0.196738 -0.340760 0.075000
v 0.340760 -0.196738 0.075000
v 0.393476 -0.000000 0.075000
vt 0.466779 0.835975
vt 0.466779 0.835975
vt 0.466779 0.835975
vt 0.466779 0.835975
vt 0.466779 0.835975
vt 0.466779 0.835975
vt 0.466779 0.835975
vt 0.466779 0.835975
vt 0.466779 0.835975
vt 0.466779 0.835975
vt 0.466779 0.835975
vt 0.466779 0.835975
vt 0.466779 0.835975
vt 0.466779 0.835975
vt 0.466779 0.835975
vt 0.466779 0.835975
vt 0.466779 0.835975
vt 0.466779 0.835975
vt 0.466779 0.835975
vt 0.466779 0.835975
vt 0.466779 0.835975
vt 0.974931 0.832284
vt 0.974931 0.832284
vt 0.974931 0.832284
vt 0.466779 0.835975
vt 0.466779 0.835975
vt 0.466779 0.835975
vt 0.974931 0.832284
vt 0.974931 0.832284
vt 0.974931 0.832284
vt 0.710974 0.839882
vt 0.710974 0.839882
vt 0.710974 0.839882
vt 0.710974 0.839882
vt 0.710974 0.839882
vt 0.710974 0.839882
vt 0.710974 0.839882
vt 0.710974 0.839882
vt 0.710974 0.839882
vt 0.710974 0.839882
vt 0.710974 0.839882
vt 0.710974 0.839882
vt 0.710974 0.839882
vt 0.710974 0.839882
vt 0.710974 0.839882
vt 0.710974 0.839882
vt 0.710974 0.839882
vt 0.710974 0.839882
vt 0.710974 0.839882
vt 0.710974 0.839882
vt 0.710974 0.839882
vt 0.710974 0.839882
vt 0.710974 0.839882
vt 0.710974 0.839882
vt 0.710974 0.839882
vt 0.710974 0.839882
vt 0.710974 0.839882
vt 0.710974 0.839882
vt 0.710974 0.839882
vt 0.710974 0.839882
vt 0.710974 0.839882
vt 0.710974 0.839882
vt 0.710974 0.839882
vt 0.710974 0.839882
vt 0.710974 0.839882
vt 0.710974 0.839882
vt 0.710974 0.839882
vt 0.710974 0.839882
vt 0.710974 0.839882
vt 0.710974 0.839882
vt 0.710974 0.839882
vt 0.710974 0.839882
vt 0.710974 0.839882
vt 0.710974 0.839882
vt 0.710974 0.839882
vt 0.710974 0.839882
vt 0.710974 0.839882
vt 0.710974 0.839882
vt 0.974931 0.832284
vt 0.974931 0.832284
vt 0.974931 0.832284
vt 0.920794 0.832284
vt 0.920794 0.832284
vt 0.920794 0.832284
vt 0.974931 0.832284
vt 0.974931 0.832284
vt 0.974931 0.832284
vt 0.974931 0.832284
vt 0.974931 0.832284
vt 0.974931 0.832284
vt 0.974931 0.832284
vt 0.974931 0.832284
vt 0.974931 0.832284
vt 0.974931 0.832284
vt 0.974931 0.832284
vt 0.974931 0.832284
vt 0.974931 0.832284
vt 0.974931 0.832284
vt 0.974931 0.832284
vt 0.974931 0.832284
vt 0.974931 0.832284
vt 0.974931 0.832284
vt 0.974931 0.832284
vt 0.974931 0.832284
vt 0.974931 0.832284
vt 0.974931 0.832284
vt 0.974931 0.832284
vt 0.974931 0.832284
vt 0.974931 0.832284
vt 0.974931 0.832284
vt 0.974931 0.832284
vt 0.974931 0.832284
vt 0.974931 0.832284
vt 0.974931 0.832284
vt 0.974931 0.832284
vt 0.974931 0.832284
vt 0.974931 0.832284
vt 0.974931 0.832284
vt 0.974931 0.832284
vt 0.974931 0.832284
vt 0.974931 0.832284
vt 0.974931 0.832284
vt 0.974931 0.832284
vt 0.974931 0.832284
vt 0.920794 0.832284
vt 0.920794 0.832284
vt 0.920794 0.832284
vt 0.974931 0.832284
vt 0.974931 0.832284
vt 0.974931 0.832284
vt 0.974931 0.832284
vt 0.974931 0.832284
vt 0.974931 0.832284
vt 0.974931 0.832284
vt 0.974931 0.832284
vt 0.974931 0.832284
vt 0.974931 0.832284
vt 0.974931 0.832284
vt 0.920794 0.832284
vt 0.920794 0.832284
vt 0.920794 0.832284
vt 0.920794 0.832284
vt 0.920794 0.832284
vt 0.920794 0.832284
vt 0.920794 0.832284
vt 0.920794 0.832284
vt 0.920794 0.832284
vt 0.920794 0.832284
vt 0.920794 0.832284
vt 0.920794 0.832284
vt 0.920794 0.832284
vt 0.920794 0.832284
vt 0.920794 0.832284
vt 0.920794 0.832284
vt 0.920794 0.832284
vt 0.920794 0.832284
vn 0.2588 0.9659 0.0000
vn 0.7071 0.7071 0.0000
vn 0.9659 0.2588 0.0000
vn 0.9659 -0.2588 0.0000
vn 0.7071 -0.7071 0.0000
vn 0.2588 -0.9659 0.0000
vn -0.2588 -0.9659 0.0000
vn -0.7071 -0.7071 0.0000
vn -0.9659 -0.2588 0.0000
vn -0.9659 0.2588 0.0000
vn -0.7071 0.7071 0.0000
vn -0.2588 0.9659 0.0000
vn 0.0000 0.0000 1.0000
vn 0.0000 0.0000 -1.0000
usemtl Material.004
s off
f 2/1/1 3/2/1 1/3/1
f 4/4/2 5/5/2 3/2/2
f 6/6/3 7/7/3 5/5/3
f 8/8/4 9/9/4 7/7/4
f 10/10/5 11/11/5 9/9/5
f 12/12/6 13/13/6 11/11/6
f 14/14/7 15/15/7 13/13/7
f 16/16/8 17/17/8 15/15/8
f 18/18/9 19/19/9 17/17/9
f 20/20/10 21/21/10 19/19/10
f 39/22/8 62/23/8 38/24/8
f 22/25/11 23/26/11 21/21/11
f 24/27/12 1/3/12 23/26/12
f 36/28/13 60/29/13 35/30/13
f 4/31/13 26/32/13 25/33/13
f 2/34/13 27/35/13 26/32/13
f 22/36/13 27/35/13 24/37/13
f 22/36/13 29/38/13 28/39/13
f 18/40/13 29/38/13 20/41/13
f 16/42/13 30/43/13 18/40/13
f 14/44/13 31/45/13 16/42/13
f 14/44/13 33/46/13 32/47/13
f 10/48/13 33/46/13 12/49/13
f 10/48/13 35/50/13 34/51/13
f 8/52/13 36/53/13 35/50/13
f 4/31/13 36/53/13 6/54/13
f 3/55/14 37/56/14 1/57/14
f 3/55/14 39/58/14 38/59/14
f 7/60/14 39/58/14 5/61/14
f 9/62/14 40/63/14 7/60/14
f 9/62/14 42/64/14 41/65/14
f 13/66/14 42/64/14 11/67/14
f 15/68/14 43/69/14 13/66/14
f 17/70/14 44/71/14 15/68/14
f 19/72/14 45/73/14 17/70/14
f 21/74/14 46/75/14 19/72/14
f 21/74/14 48/76/14 47/77/14
f 23/78/14 37/56/14 48/76/14
f 50/79/7 73/80/7 49/81/7
f 65/82/14 69/83/14 63/84/14
f 29/85/13 53/86/13 28/87/13
f 47/88/4 71/89/4 46/90/4
f 40/91/9 64/92/9 39/22/9
f 30/93/13 54/94/13 29/85/13
f 48/95/5 72/96/5 47/88/5
f 41/97/10 65/98/10 40/91/10
f 31/99/13 55/100/13 30/93/13
f 42/101/11 66/102/11 41/97/11
f 32/103/13 56/104/13 31/99/13
f 26/105/13 49/81/13 25/106/13
f 43/107/12 67/108/12 42/101/12
f 33/109/13 57/110/13 32/103/13
f 25/106/13 51/111/13 36/28/13
f 44/112/1 68/113/1 43/107/1
f 34/114/13 58/115/13 33/109/13
f 38/24/7 61/116/7 37/117/7
f 27/118/13 50/79/13 26/105/13
f 45/119/2 69/120/2 44/112/2
f 35/30/13 59/121/13 34/114/13
f 37/117/6 63/122/6 48/95/6
f 28/87/13 52/123/13 27/118/13
f 46/90/3 70/124/3 45/119/3
f 74/125/13 77/126/13 81/127/13
f 57/110/1 80/128/1 56/104/1
f 54/94/4 77/129/4 53/86/4
f 51/111/9 84/130/9 60/29/9
f 49/81/8 75/131/8 51/111/8
f 58/115/12 81/132/12 57/110/12
f 55/100/3 78/133/3 54/94/3
f 52/123/6 74/134/6 50/79/6
f 59/121/11 82/135/11 58/115/11
f 56/104/2 79/136/2 55/100/2
f 53/86/5 76/137/5 52/123/5
f 60/29/10 83/138/10 59/121/10
f 2/1/1 4/4/1 3/2/1
f 4/4/2 6/6/2 5/5/2
f 6/6/3 8/8/3 7/7/3
f 8/8/4 10/10/4 9/9/4
f 10/10/5 12/12/5 11/11/5
f 12/12/6 14/14/6 13/13/6
f 14/14/7 16/16/7 15/15/7
f 16/16/8 18/18/8 17/17/8
f 18/18/9 20/20/9 19/19/9
f 20/20/10 22/25/10 21/21/10
f 39/22/8 64/92/8 62/23/8
f 22/25/11 24/27/11 23/26/11
f 24/27/12 2/1/12 1/3/12
f 36/28/13 51/111/13 60/29/13
f 4/31/13 2/34/13 26/32/13
f 2/34/13 24/37/13 27/35/13
f 22/36/13 28/39/13 27/35/13
f 22/36/13 20/41/13 29/38/13
f 18/40/13 30/43/13 29/38/13
f 16/42/13 31/45/13 30/43/13
f 14/44/13 32/47/13 31/45/13
f 14/44/13 12/49/13 33/46/13
f 10/48/13 34/51/13 33/46/13
f 10/48/13 8/52/13 35/50/13
f 8/52/13 6/54/13 36/53/13
f 4/31/13 25/33/13 36/53/13
f 3/55/14 38/59/14 37/56/14
f 3/55/14 5/61/14 39/58/14
f 7/60/14 40/63/14 39/58/14
f 9/62/14 41/65/14 40/63/14
f 9/62/14 11/67/14 42/64/14
f 13/66/14 43/69/14 42/64/14
f 15/68/14 44/71/14 43/69/14
f 17/70/14 45/73/14 44/71/14
f 19/72/14 46/75/14 45/73/14
f 21/74/14 47/77/14 46/75/14
f 21/74/14 23/78/14 48/76/14
f 23/78/14 1/57/14 37/56/14
f 50/79/7 74/134/7 73/80/7
f 63/84/14 61/139/14 62/140/14
f 62/140/14 64/141/14 65/82/14
f 65/82/14 66/142/14 67/143/14
f 67/143/14 68/144/14 65/82/14
f 68/144/14 69/83/14 65/82/14
f 69/83/14 70/145/14 71/146/14
f 71/146/14 72/147/14 69/83/14
f 72/147/14 63/84/14 69/83/14
f 63/84/14 62/140/14 65/82/14
f 29/85/13 54/94/13 53/86/13
f 47/88/4 72/96/4 71/89/4
f 40/91/9 65/98/9 64/92/9
f 30/93/13 55/100/13 54/94/13
f 48/95/5 63/122/5 72/96/5
f 41/97/10 66/102/10 65/98/10
f 31/99/13 56/104/13 55/100/13
f 42/101/11 67/108/11 66/102/11
f 32/103/13 57/110/13 56/104/13
f 26/105/13 50/79/13 49/81/13
f 43/107/12 68/113/12 67/108/12
f 33/109/13 58/115/13 57/110/13
f 25/106/13 49/81/13 51/111/13
f 44/112/1 69/120/1 68/113/1
f 34/114/13 59/121/13 58/115/13
f 38/24/7 62/23/7 61/116/7
f 27/118/13 52/123/13 50/79/13
f 45/119/2 70/124/2 69/120/2
f 35/30/13 60/29/13 59/121/13
f 37/117/6 61/116/6 63/122/6
f 28/87/13 53/86/13 52/123/13
f 46/90/3 71/89/3 70/124/3
f 75/148/13 73/149/13 74/125/13
f 74/125/13 76/150/13 77/126/13
f 77/126/13 78/151/13 79/152/13
f 79/152/13 80/153/13 77/126/13
f 80/153/13 81/127/13 77/126/13
f 81/127/13 82/154/13 83/155/13
f 83/155/13 84/156/13 81/127/13
f 84/156/13 75/148/13 81/127/13
f 75/148/13 74/125/13 81/127/13
f 57/110/1 81/132/1 80/128/1
f 54/94/4 78/133/4 77/129/4
f 51/111/9 75/131/9 84/130/9
f 49/81/8 73/80/8 75/131/8
f 58/115/12 82/135/12 81/132/12
f 55/100/3 79/136/3 78/133/3
f 52/123/6 76/137/6 74/134/6
f 59/121/11 83/138/11 82/135/11
f 56/104/2 80/128/2 79/136/2
f 53/86/5 77/129/5 76/137/5
f 60/29/10 84/130/10 83/138/10
