# Blender v2.93.1 OBJ File: 'tree.blend'
# www.blender.org
mtllib tree.mtl
o trunk_Cylinder.001
v 0.000000 0.000000 -0.200000
v 0.000000 5.000000 -0.200000
v 0.156366 0.000000 -0.124698
v 0.156366 5.000000 -0.124698
v 0.194986 0.000000 0.044504
v 0.194986 5.000000 0.044504
v 0.086777 0.000000 0.180194
v 0.086777 5.000000 0.180194
v -0.086777 0.000000 0.180194
v -0.086777 5.000000 0.180194
v -0.194986 0.000000 0.044504
v -0.194986 5.000000 0.044504
v -0.156366 0.000000 -0.124698
v -0.156366 5.000000 -0.124698
vt 0.533203 0.904297
vt 0.533203 0.904297
vt 0.533203 0.904297
vt 0.533203 0.904297
vt 0.533203 0.904297
vt 0.533203 0.904297
vt 0.533203 0.904297
vt 0.533203 0.904297
vt 0.533203 0.904297
vt 0.533203 0.904297
vt 0.533203 0.904297
vt 0.533203 0.904297
vt 0.533203 0.904297
vt 0.533203 0.904297
vn 0.4339 0.0000 -0.9010
vn 0.9749 0.0000 -0.2225
vn 0.7818 0.0000 0.6235
vn 0.0000 0.0000 1.0000
vn -0.7818 0.0000 0.6235
vn -0.9749 0.0000 -0.2225
vn -0.4339 0.0000 -0.9010
usemtl Material
s off
f 2/1/1 3/2/1 1/3/1
f 4/4/2 5/5/2 3/2/2
f 6/6/3 7/7/3 5/5/3
f 8/8/4 9/9/4 7/7/4
f 10/10/5 11/11/5 9/9/5
f 12/12/6 13/13/6 11/11/6
f 14/14/7 1/3/7 13/13/7
f 2/1/1 4/4/1 3/2/1
f 4/4/2 6/6/2 5/5/2
f 6/6/3 8/8/3 7/7/3
f 8/8/4 10/10/4 9/9/4
f 10/10/5 12/12/5 11/11/5
f 12/12/6 14/14/6 13/13/6
f 14/14/7 2/1/7 1/3/7
o leaves_Cylinder.002
v 0.002543 8.837759 -1.850256
v 0.000321 7.971060 -2.345289
v 0.000147 6.042993 -2.310315
v -0.039971 4.301769 -1.106440
v 0.386801 9.384146 -0.916456
v 0.692452 8.807583 -1.669655
v 0.886620 7.960257 -2.141779
v 0.969976 6.999456 -2.338548
v 0.894999 6.032535 -2.165547
v 0.694024 5.186366 -1.685848
v 0.390624 4.356668 -1.039901
v 0.699744 9.375557 -0.702139
v 1.255394 8.775313 -1.255450
v 1.633204 7.956708 -1.633204
v 1.933298 6.980051 -1.948450
v 1.823191 5.954254 -1.817033
v 1.343403 5.101183 -1.372334
v 0.752919 4.323342 -0.849362
v 0.956314 9.483902 -0.397520
v 1.641268 8.775570 -0.676512
v 2.143678 7.956782 -0.887934
v 2.555784 6.982610 -1.073894
v 2.508122 5.865519 -1.116537
v 1.880428 5.008566 -0.810874
v 1.060229 4.166030 -0.546188
v 1.047433 9.521031 -0.007725
v 1.820394 8.818212 0.001071
v 2.335498 7.964612 0.003207
v 2.570760 7.002049 0.002867
v 2.666413 5.921520 -0.040316
v 2.153289 4.853879 0.020537
v 1.287044 3.947240 -0.075173
v 0.949477 9.455610 0.387078
v 1.677423 8.819730 0.701879
v 2.218351 7.988815 0.917715
v 2.446514 7.003697 1.013805
v 2.341184 5.958600 0.958864
v 2.009773 4.845874 0.820984
v 1.184282 3.908324 0.512661
v 0.696383 9.364540 0.701099
v 1.363297 8.922390 1.360388
v 1.679522 8.003866 1.686533
v 1.908185 7.000226 1.899217
v 1.745112 5.986108 1.752819
v 1.421481 5.025270 1.440601
v 0.841073 3.972925 0.965306
v 0.374894 9.345865 0.908964
v 0.736646 8.899755 1.765606
v 0.957722 8.065224 2.338678
v 1.114540 6.990086 2.620801
v 0.993365 5.907207 2.372642
v 0.775510 5.036753 1.877373
v 0.414035 3.982940 1.292897
v 0.004061 9.678291 -0.002729
v 0.001990 9.345836 0.976255
v -0.007725 8.912567 1.913213
v -0.006206 8.117060 2.666181
v 0.042578 6.945517 3.066742
v -0.010023 5.796763 2.714300
v -0.003517 5.068305 1.991349
v -0.067280 4.005239 1.435288
v -0.398211 9.471722 0.946876
v -0.739529 8.928052 1.780966
v -1.014964 8.093744 2.359663
v -1.225639 6.994359 2.892606
v -0.999747 5.834078 2.471221
v -0.748942 5.067450 1.833092
v -0.529028 4.068675 1.298094
v -0.783406 9.624966 0.762208
v -1.335266 8.881809 1.335378
v -1.757732 8.026437 1.745951
v -2.052625 7.022910 2.006525
v -1.931503 5.854500 1.923170
v -1.462166 4.971922 1.487826
v -0.876610 4.142210 0.937237
v -0.071455 3.201908 -0.034128
v -1.008997 9.575781 0.366404
v -1.755580 8.892128 0.724832
v -2.255805 8.006845 0.932979
v -2.453167 7.011057 1.015048
v -2.339320 5.968096 0.956302
v -1.862413 5.033219 0.762702
v -1.085916 4.218242 0.479133
v -1.024533 9.488178 -0.018132
v -1.952483 8.939629 0.022437
v -2.439204 7.991276 0.009713
v -2.553180 7.001292 0.004229
v -2.434989 6.003989 -0.013466
v -1.956521 5.074244 0.003243
v -1.134371 4.230521 0.009177
v -0.936341 9.479959 -0.379996
v -1.881068 9.069660 -0.761694
v -2.511488 8.090426 -1.008124
v -2.347506 7.001693 -0.968371
v -2.290130 5.982280 -0.969012
v -1.736819 5.107828 -0.715396
v -1.049592 4.175052 -0.459198
v -0.719468 9.522428 -0.731583
v -1.441390 9.151820 -1.507499
v -1.826030 8.063358 -1.845679
v -1.793268 7.001275 -1.791024
v -1.692424 6.012792 -1.704606
v -1.284849 5.144073 -1.283435
v -0.818241 4.153763 -0.825489
v -0.394639 9.509215 -0.956475
v -0.705438 8.929434 -1.762998
v -0.907435 7.992916 -2.217833
v -0.956725 6.999999 -2.309740
v -0.883882 6.043292 -2.133884
v -0.691704 5.186405 -1.661966
v -0.466252 4.203557 -1.042387
v 0.011373 9.461664 -1.031572
v 0.000001 7.000000 -2.500000
v -0.001118 5.225296 -1.775758
vt 0.597656 0.642578
vt 0.597656 0.642578
vt 0.597656 0.642578
vt 0.597656 0.642578
vt 0.597656 0.642578
vt 0.597656 0.642578
vt 0.597656 0.642578
vt 0.597656 0.642578
vt 0.597656 0.642578
vt 0.597656 0.642578
vt 0.597656 0.642578
vt 0.597656 0.642578
vt 0.597656 0.642578
vt 0.597656 0.642578
vt 0.597656 0.642578
vt 0.597656 0.642578
vt 0.597656 0.642578
vt 0.597656 0.642578
vt 0.597656 0.642578
vt 0.597656 0.642578
vt 0.597656 0.642578
vt 0.597656 0.642578
vt 0.597656 0.642578
vt 0.597656 0.642578
vt 0.597656 0.642578
vt 0.597656 0.642578
vt 0.597656 0.642578
vt 0.597656 0.642578
vt 0.597656 0.642578
vt 0.597656 0.642578
vt 0.597656 0.642578
vt 0.597656 0.642578
vt 0.597656 0.642578
vt 0.597656 0.642578
vt 0.597656 0.642578
vt 0.597656 0.642578
vt 0.597656 0.642578
vt 0.597656 0.642578
vt 0.597656 0.642578
vt 0.597656 0.642578
vt 0.597656 0.642578
vt 0.597656 0.642578
vt 0.597656 0.642578
vt 0.597656 0.642578
vt 0.597656 0.642578
vt 0.597656 0.642578
vt 0.597656 0.642578
vt 0.597656 0.642578
vt 0.597656 0.642578
vt 0.597656 0.642578
vt 0.597656 0.642578
vt 0.597656 0.642578
vt 0.597656 0.642578
vt 0.597656 0.642578
vt 0.597656 0.642578
vt 0.597656 0.642578
vt 0.597656 0.642578
vt 0.597656 0.642578
vt 0.597656 0.642578
vt 0.597656 0.642578
vt 0.597656 0.642578
vt 0.597656 0.642578
vt 0.597656 0.642578
vt 0.597656 0.642578
vt 0.597656 0.642578
vt 0.597656 0.642578
vt 0.597656 0.642578
vt 0.597656 0.642578
vt 0.597656 0.642578
vt 0.597656 0.642578
vt 0.597656 0.642578
vt 0.597656 0.642578
vt 0.597656 0.642578
vt 0.597656 0.642578
vt 0.597656 0.642578
vt 0.597656 0.642578
vt 0.597656 0.642578
vt 0.597656 0.642578
vt 0.597656 0.642578
vt 0.597656 0.642578
vt 0.597656 0.642578
vt 0.597656 0.642578
vt 0.597656 0.642578
vt 0.597656 0.642578
vt 0.597656 0.642578
vt 0.597656 0.642578
vt 0.597656 0.642578
vt 0.597656 0.642578
vt 0.597656 0.642578
vt 0.597656 0.642578
vt 0.597656 0.642578
vt 0.597656 0.642578
vt 0.597656 0.642578
vt 0.597656 0.642578
vt 0.597656 0.642578
vt 0.597656 0.642578
vt 0.597656 0.642578
vt 0.597656 0.642578
vt 0.597656 0.642578
vt 0.597656 0.642578
vt 0.597656 0.642578
vt 0.597656 0.642578
vt 0.597656 0.642578
vt 0.597656 0.642578
vt 0.597656 0.642578
vt 0.597656 0.642578
vt 0.597656 0.642578
vt 0.597656 0.642578
vt 0.597656 0.642578
vt 0.597656 0.642578
vt 0.597656 0.642578
vt 0.597656 0.642578
vt 0.597656 0.642578
vt 0.597656 0.642578
vn 0.1957 -0.6874 -0.6994
vn 0.0827 -0.5063 -0.8584
vn 0.1606 0.2114 -0.9641
vn 0.1902 0.7799 -0.5964
vn 0.1961 -0.5808 -0.7900
vn 0.1545 -0.1921 -0.9691
vn 0.2013 0.4854 -0.8508
vn 0.2559 0.9463 -0.1974
vn 0.3832 0.8019 -0.4583
vn 0.3051 -0.6520 -0.6941
vn 0.3309 -0.1910 -0.9241
vn 0.4867 0.5077 -0.7109
vn 0.1841 0.9555 -0.2305
vn 0.2852 -0.6919 -0.6633
vn 0.3137 -0.5236 -0.7921
vn 0.3701 0.2171 -0.9033
vn 0.3076 -0.6806 -0.6650
vn 0.6948 -0.1643 -0.7002
vn 0.6944 0.5400 -0.4757
vn 0.0391 0.9306 -0.3639
vn 0.2936 -0.6938 -0.6576
vn 0.5223 -0.6063 -0.5996
vn 0.7458 0.4009 -0.5320
vn 0.5117 0.7884 -0.3414
vn 0.1472 0.9808 -0.1278
vn 0.3935 -0.7467 -0.5363
vn 0.8354 -0.4216 -0.3526
vn 0.9194 0.3927 -0.0199
vn 0.6569 0.7215 -0.2191
vn 0.5045 -0.6643 -0.5515
vn 0.9890 -0.0367 -0.1435
vn 0.8415 0.5073 -0.1856
vn 0.8937 -0.4206 0.1560
vn 0.9646 0.2357 0.1182
vn 0.6215 0.7734 0.1251
vn 0.7165 -0.6930 0.0794
vn 0.9492 0.0718 0.3063
vn 0.8522 0.5145 0.0955
vn 0.1470 0.9693 0.1971
vn 0.4814 -0.8761 0.0262
vn 0.5534 -0.6560 0.5132
vn 0.7929 -0.1114 0.5991
vn 0.6811 0.5645 0.4663
vn 0.0816 0.9377 0.3377
vn 0.3269 -0.8688 0.3718
vn 0.6538 -0.2817 0.7023
vn 0.8168 0.2916 0.4978
vn 0.6063 0.7773 0.1680
vn 0.6325 -0.2396 0.7366
vn 0.6214 0.4433 0.6460
vn 0.1333 0.9473 0.2912
vn 0.2899 -0.8674 0.4044
vn 0.5043 -0.4158 0.7568
vn 0.6405 0.2961 0.7086
vn 0.2158 0.8978 0.3838
vn 0.4921 -0.5690 0.6589
vn 0.1007 -0.8731 0.4770
vn 0.1041 -0.5114 0.8530
vn 0.3580 0.2855 0.8890
vn 0.1000 0.8992 0.4260
vn 0.2180 -0.5295 0.8198
vn 0.3369 -0.2902 0.8957
vn 0.2875 0.5928 0.7523
vn 0.0579 0.9453 0.3211
vn -0.1170 0.3169 0.9412
vn -0.0565 0.9064 0.4186
vn -0.3110 -0.4258 0.8497
vn -0.2391 -0.2748 0.9313
vn -0.2303 0.6687 0.7070
vn 0.2644 0.9130 0.3106
vn -0.2545 -0.8482 0.4645
vn -0.1481 -0.6973 0.7013
vn -0.6858 -0.4552 0.5678
vn -0.4750 -0.3806 0.7934
vn -0.5446 0.5919 0.5942
vn 0.2263 0.9275 0.2976
vn -0.5155 -0.7883 0.3359
vn -0.2506 -0.6665 0.7021
vn -0.6539 0.4278 0.6240
vn -0.3641 0.8414 0.3994
vn -0.7144 0.5565 0.4243
vn -0.1202 0.9912 -0.0547
vn -0.6512 -0.7384 0.1750
vn -0.7387 -0.5702 0.3595
vn -0.8712 0.3463 0.3478
vn -0.5617 0.7248 0.3989
vn -0.7218 -0.6560 0.2209
vn -0.9196 -0.1220 0.3735
vn -0.6933 -0.7187 0.0527
vn -0.8805 -0.4665 0.0839
vn -0.9750 0.2010 0.0945
vn -0.5992 0.7697 0.2200
vn -0.7132 -0.6988 0.0553
vn -0.9885 -0.1188 0.0931
vn -0.8781 0.4484 0.1669
vn -0.1745 0.9616 -0.2120
vn -0.5034 0.8587 0.0965
vn -0.7153 -0.6973 -0.0469
vn -0.9874 -0.0555 -0.1484
vn -0.8851 0.4528 0.1070
vn -0.1804 0.9814 -0.0662
vn -0.6957 -0.7172 -0.0410
vn -0.8513 -0.4431 -0.2810
vn -0.9721 0.1131 -0.2055
vn -0.6838 -0.6127 -0.3963
vn -0.7665 -0.1331 -0.6283
vn -0.6389 0.5474 -0.5406
vn -0.2036 0.9790 -0.0073
vn -0.5899 -0.7370 -0.3298
vn -0.6325 -0.5565 -0.5388
vn -0.8208 -0.1438 -0.5529
vn -0.3585 0.9271 -0.1092
vn -0.0628 0.9869 -0.1487
vn -0.2782 -0.7337 -0.6199
vn -0.4377 -0.5071 -0.7425
vn -0.5261 -0.0599 -0.8483
vn 0.0890 0.8640 -0.4955
vn -0.3887 -0.5313 -0.7528
vn -0.4543 -0.1944 -0.8694
vn -0.3215 0.3827 -0.8661
vn -0.1065 -0.5440 -0.8323
vn -0.1941 0.1000 -0.9759
vn 0.0282 0.7949 -0.6061
vn -0.0040 -0.5339 -0.8455
vn -0.1922 -0.1915 -0.9625
vn -0.1093 0.4932 -0.8630
vn 0.0764 0.9758 -0.2049
vn 0.0535 -0.6979 -0.7142
vn 0.1279 -0.5428 -0.8300
vn 0.2229 0.1533 -0.9627
vn 0.3181 0.8107 -0.4915
vn 0.0652 -0.6277 -0.7757
vn 0.1612 -0.1859 -0.9692
vn 0.2382 0.5138 -0.8242
vn 0.3608 0.7904 -0.4951
vn 0.2524 -0.6645 -0.7034
vn 0.3680 -0.1569 -0.9165
vn 0.5174 0.5437 -0.6608
vn 0.2511 -0.5547 -0.7933
vn 0.5166 0.4026 -0.7556
vn 0.4883 -0.6561 -0.5753
vn 0.8147 -0.0126 -0.5798
vn 0.6964 0.5472 -0.4644
vn 0.5315 -0.6019 -0.5960
vn 0.7504 0.4156 -0.5140
vn 0.4392 0.6633 -0.6059
vn 0.7893 -0.6082 -0.0844
vn 0.9504 0.2324 -0.2066
vn 0.6573 0.7201 -0.2222
vn 0.6964 -0.6289 -0.3456
vn 0.9959 0.0888 -0.0155
vn 0.7967 0.5522 -0.2454
vn 0.9018 -0.3064 0.3049
vn 0.9649 0.2349 0.1174
vn 0.6445 0.7123 0.2779
vn 0.7244 -0.6783 0.1231
vn 0.9869 -0.1059 0.1215
vn 0.8069 0.5677 0.1634
vn 0.5064 -0.5711 0.6461
vn 0.8362 -0.2077 0.5076
vn 0.8458 0.4117 0.3393
vn 0.7180 -0.4218 0.5537
vn 0.7974 0.2387 0.5542
vn 0.1870 0.8929 0.4097
vn 0.6592 -0.2102 0.7220
vn 0.4249 0.5862 0.6898
vn 0.5791 -0.5078 0.6378
vn 0.6566 0.2796 0.7005
vn 0.1972 0.9012 0.3860
vn 0.4626 -0.5461 0.6985
vn 0.3044 -0.6696 0.6775
vn 0.3203 0.3184 0.8922
vn 0.0756 0.9048 0.4192
vn 0.1096 -0.4659 0.8780
vn 0.3809 -0.2468 0.8910
vn 0.1540 0.6794 0.7175
vn -0.2677 0.4613 0.8459
vn 0.2021 0.7806 0.5915
vn -0.1799 -0.4950 0.8501
vn -0.1405 -0.3620 0.9215
vn -0.1309 0.5939 0.7939
vn -0.2017 -0.6647 0.7193
vn -0.2570 -0.6537 0.7118
vn -0.7274 -0.1236 0.6749
vn -0.5220 0.5647 0.6393
vn -0.4251 -0.5721 0.7014
vn -0.6129 0.3624 0.7021
vn -0.1000 0.6532 0.7506
vn -0.7030 0.5130 0.4926
vn -0.8262 -0.4819 0.2919
vn -0.8363 0.2076 0.5074
vn -0.5901 0.7706 0.2406
vn -0.6393 -0.7110 0.2928
vn -0.9198 -0.1214 0.3730
vn -0.8875 -0.4554 0.0707
vn -0.9751 0.1112 0.1918
vn -0.5069 0.8447 -0.1720
vn -0.7155 -0.6968 0.0510
vn -0.9886 -0.1135 0.0989
vn -0.8122 0.5208 0.2629
vn -0.3588 0.9271 -0.1085
vn -0.7433 -0.6180 -0.2561
vn -0.9722 -0.1116 -0.2056
vn -0.8422 0.5390 0.0127
vn -0.8246 -0.5544 -0.1124
vn -0.9876 -0.1467 0.0558
vn -0.6361 -0.5500 -0.5412
vn -0.8285 -0.0463 -0.5581
vn -0.8026 0.4164 -0.4273
vn -0.6329 -0.5574 -0.5374
vn -0.7735 -0.0563 -0.6312
vn -0.3586 0.9271 -0.1092
vn -0.3782 -0.5415 -0.7508
vn -0.3666 0.1038 -0.9246
vn -0.2979 0.8258 -0.4788
vn -0.4207 -0.5509 -0.7208
vn -0.5229 -0.1270 -0.8429
vn -0.1642 0.4594 -0.8729
vn -0.1692 -0.5043 -0.8468
vn -0.1337 0.1560 -0.9787
vn -0.0120 0.8141 -0.5806
vn -0.1004 -0.5811 -0.8076
vn -0.1915 -0.1909 -0.9628
vn -0.0525 0.4454 -0.8938
usemtl Material
s off
f 90/15/8 18/16/8 25/17/8
f 128/18/9 23/19/9 24/20/9
f 127/21/10 21/22/10 22/23/10
f 126/24/11 20/25/11 15/26/11
f 128/18/12 25/17/12 18/16/12
f 127/21/13 23/19/13 17/27/13
f 15/26/14 21/22/14 16/28/14
f 126/24/15 68/29/15 19/30/15
f 19/30/16 27/31/16 20/25/16
f 24/20/17 32/32/17 25/17/17
f 22/23/18 30/33/18 23/19/18
f 20/25/19 28/34/19 21/22/19
f 19/30/20 68/29/20 26/35/20
f 90/15/21 25/17/21 32/32/21
f 23/19/22 31/36/22 24/20/22
f 21/22/23 29/37/23 22/23/23
f 31/36/24 39/38/24 32/32/24
f 29/37/25 37/39/25 30/33/25
f 27/31/26 35/40/26 28/34/26
f 26/35/27 68/29/27 33/41/27
f 90/15/28 32/32/28 39/38/28
f 30/33/29 38/42/29 31/36/29
f 28/34/30 36/43/30 29/37/30
f 26/35/31 34/44/31 27/31/31
f 33/41/32 68/29/32 40/45/32
f 90/15/33 39/38/33 46/46/33
f 38/42/34 44/47/34 45/48/34
f 35/40/35 43/49/35 36/43/35
f 33/41/36 41/50/36 34/44/36
f 38/42/37 46/46/37 39/38/37
f 36/43/38 44/47/38 37/39/38
f 35/40/39 41/50/39 42/51/39
f 44/47/40 52/52/40 45/48/40
f 42/51/41 50/53/41 43/49/41
f 41/50/42 47/54/42 48/55/42
f 45/48/43 53/56/43 46/46/43
f 43/49/44 51/57/44 44/47/44
f 41/50/45 49/58/45 42/51/45
f 40/45/46 68/29/46 47/54/46
f 90/15/47 46/46/47 53/56/47
f 52/52/48 60/59/48 53/56/48
f 50/53/49 58/60/49 51/57/49
f 48/55/50 56/61/50 49/58/50
f 47/54/51 68/29/51 54/62/51
f 90/15/52 53/56/52 60/59/52
f 51/57/53 59/63/53 52/52/53
f 50/53/54 56/61/54 57/64/54
f 47/54/55 55/65/55 48/55/55
f 58/60/56 64/66/56 65/67/56
f 55/65/57 63/68/57 56/61/57
f 54/62/58 68/29/58 61/69/58
f 90/15/59 60/59/59 67/70/59
f 58/60/60 66/71/60 59/63/60
f 56/61/61 64/66/61 57/64/61
f 54/62/62 62/72/62 55/65/62
f 59/63/63 67/70/63 60/59/63
f 90/15/64 67/70/64 75/73/64
f 65/67/65 74/74/65 66/71/65
f 63/68/66 72/75/66 64/66/66
f 61/69/67 70/76/67 62/72/67
f 66/71/68 75/73/68 67/70/68
f 65/67/69 72/75/69 73/77/69
f 62/72/70 71/78/70 63/68/70
f 61/69/71 68/29/71 69/79/71
f 71/78/72 79/80/72 72/75/72
f 69/79/73 77/81/73 70/76/73
f 74/74/74 82/82/74 75/73/74
f 72/75/75 80/83/75 73/77/75
f 70/76/76 78/84/76 71/78/76
f 69/79/77 68/29/77 76/85/77
f 90/15/78 75/73/78 82/82/78
f 73/77/79 81/86/79 74/74/79
f 81/86/80 89/87/80 82/82/80
f 79/80/81 87/88/81 80/83/81
f 77/81/82 85/89/82 78/84/82
f 76/85/83 68/29/83 83/90/83
f 90/15/84 82/82/84 89/87/84
f 80/83/85 88/91/85 81/86/85
f 78/84/86 86/92/86 79/80/86
f 76/85/87 84/93/87 77/81/87
f 84/93/88 93/94/88 85/89/88
f 83/90/89 68/29/89 91/95/89
f 90/15/90 89/87/90 97/96/90
f 87/88/91 96/97/91 88/91/91
f 85/89/92 94/98/92 86/92/92
f 83/90/93 92/99/93 84/93/93
f 88/91/94 97/96/94 89/87/94
f 86/92/95 95/100/95 87/88/95
f 90/15/96 97/96/96 104/101/96
f 95/100/97 103/102/97 96/97/97
f 93/94/98 101/103/98 94/98/98
f 91/95/99 99/104/99 92/99/99
f 96/97/100 104/101/100 97/96/100
f 95/100/101 101/103/101 102/105/101
f 93/94/102 99/104/102 100/106/102
f 91/95/103 68/29/103 98/107/103
f 98/107/104 106/108/104 99/104/104
f 103/102/105 111/109/105 104/101/105
f 102/105/106 108/110/106 109/111/106
f 99/104/107 107/112/107 100/106/107
f 98/107/108 68/29/108 105/113/108
f 90/15/109 104/101/109 111/109/109
f 102/105/110 110/114/110 103/102/110
f 100/106/111 108/110/111 101/103/111
f 110/114/112 118/115/112 111/109/112
f 109/111/113 115/116/113 116/117/113
f 106/108/114 114/118/114 107/112/114
f 105/113/115 68/29/115 112/119/115
f 90/15/116 111/109/116 118/115/116
f 109/111/117 117/120/117 110/114/117
f 107/112/118 115/116/118 108/110/118
f 105/113/119 113/121/119 106/108/119
f 112/119/120 68/29/120 119/122/120
f 90/15/121 118/115/121 125/123/121
f 117/120/122 123/124/122 124/125/122
f 114/118/123 122/126/123 115/116/123
f 112/119/124 120/127/124 113/121/124
f 117/120/125 125/123/125 118/115/125
f 116/117/126 122/126/126 123/124/126
f 113/121/127 121/128/127 114/118/127
f 124/125/128 17/27/128 128/18/128
f 121/128/129 127/21/129 122/126/129
f 120/127/130 126/24/130 15/26/130
f 124/125/131 18/16/131 125/123/131
f 122/126/132 17/27/132 123/124/132
f 121/128/133 15/26/133 16/28/133
f 119/122/134 68/29/134 126/24/134
f 90/15/135 125/123/135 18/16/135
f 128/18/136 17/27/136 23/19/136
f 127/21/137 16/28/137 21/22/137
f 126/24/138 19/30/138 20/25/138
f 128/18/139 24/20/139 25/17/139
f 127/21/140 22/23/140 23/19/140
f 15/26/141 20/25/141 21/22/141
f 19/30/142 26/35/142 27/31/142
f 24/20/143 31/36/143 32/32/143
f 22/23/144 29/37/144 30/33/144
f 20/25/145 27/31/145 28/34/145
f 23/19/146 30/33/146 31/36/146
f 21/22/147 28/34/147 29/37/147
f 31/36/148 38/42/148 39/38/148
f 29/37/149 36/43/149 37/39/149
f 27/31/150 34/44/150 35/40/150
f 30/33/151 37/39/151 38/42/151
f 28/34/152 35/40/152 36/43/152
f 26/35/153 33/41/153 34/44/153
f 38/42/154 37/39/154 44/47/154
f 35/40/155 42/51/155 43/49/155
f 33/41/156 40/45/156 41/50/156
f 38/42/157 45/48/157 46/46/157
f 36/43/158 43/49/158 44/47/158
f 35/40/159 34/44/159 41/50/159
f 44/47/160 51/57/160 52/52/160
f 42/51/161 49/58/161 50/53/161
f 41/50/162 40/45/162 47/54/162
f 45/48/163 52/52/163 53/56/163
f 43/49/164 50/53/164 51/57/164
f 41/50/165 48/55/165 49/58/165
f 52/52/166 59/63/166 60/59/166
f 50/53/167 57/64/167 58/60/167
f 48/55/168 55/65/168 56/61/168
f 51/57/169 58/60/169 59/63/169
f 50/53/170 49/58/170 56/61/170
f 47/54/171 54/62/171 55/65/171
f 58/60/172 57/64/172 64/66/172
f 55/65/173 62/72/173 63/68/173
f 58/60/174 65/67/174 66/71/174
f 56/61/175 63/68/175 64/66/175
f 54/62/176 61/69/176 62/72/176
f 59/63/177 66/71/177 67/70/177
f 65/67/178 73/77/178 74/74/178
f 63/68/179 71/78/179 72/75/179
f 61/69/180 69/79/180 70/76/180
f 66/71/181 74/74/181 75/73/181
f 65/67/182 64/66/182 72/75/182
f 62/72/183 70/76/183 71/78/183
f 71/78/184 78/84/184 79/80/184
f 69/79/185 76/85/185 77/81/185
f 74/74/186 81/86/186 82/82/186
f 72/75/187 79/80/187 80/83/187
f 70/76/188 77/81/188 78/84/188
f 73/77/189 80/83/189 81/86/189
f 81/86/190 88/91/190 89/87/190
f 79/80/191 86/92/191 87/88/191
f 77/81/192 84/93/192 85/89/192
f 80/83/193 87/88/193 88/91/193
f 78/84/194 85/89/194 86/92/194
f 76/85/195 83/90/195 84/93/195
f 84/93/196 92/99/196 93/94/196
f 87/88/197 95/100/197 96/97/197
f 85/89/198 93/94/198 94/98/198
f 83/90/199 91/95/199 92/99/199
f 88/91/200 96/97/200 97/96/200
f 86/92/201 94/98/201 95/100/201
f 95/100/202 102/105/202 103/102/202
f 93/94/203 100/106/203 101/103/203
f 91/95/204 98/107/204 99/104/204
f 96/97/205 103/102/205 104/101/205
f 95/100/206 94/98/206 101/103/206
f 93/94/207 92/99/207 99/104/207
f 98/107/208 105/113/208 106/108/208
f 103/102/209 110/114/209 111/109/209
f 102/105/210 101/103/210 108/110/210
f 99/104/211 106/108/211 107/112/211
f 102/105/212 109/111/212 110/114/212
f 100/106/213 107/112/213 108/110/213
f 110/114/214 117/120/214 118/115/214
f 109/111/215 108/110/215 115/116/215
f 106/108/216 113/121/216 114/118/216
f 109/111/217 116/117/217 117/120/217
f 107/112/218 114/118/218 115/116/218
f 105/113/219 112/119/219 113/121/219
f 117/120/220 116/117/220 123/124/220
f 114/118/221 121/128/221 122/126/221
f 112/119/222 119/122/222 120/127/222
f 117/120/223 124/125/223 125/123/223
f 116/117/224 115/116/224 122/126/224
f 113/121/225 120/127/225 121/128/225
f 124/125/226 123/124/226 17/27/226
f 121/128/227 16/28/227 127/21/227
f 120/127/228 119/122/228 126/24/228
f 124/125/229 128/18/229 18/16/229
f 122/126/230 127/21/230 17/27/230
f 121/128/231 120/127/231 15/26/231
