# Blender v2.93.1 OBJ File: 'scary_ghost.blend'
# www.blender.org
mtllib scary_ghost.mtl
o Sphere_Sphere.002
v 0.000000 0.866025 -0.500000
v 0.000000 0.500000 -0.866025
v 0.000000 -0.000000 -1.000000
v 0.250000 0.866025 -0.433013
v 0.433013 0.500000 -0.750000
v 0.500000 -0.000000 -0.866025
v 0.433013 0.866025 -0.250000
v 0.750000 0.500000 -0.433013
v 0.866026 -0.000000 -0.500000
v 0.500000 0.866025 0.000000
v 0.866026 0.500000 0.000000
v 1.000000 -0.000000 0.000000
v 0.433013 0.866025 0.250000
v 0.750000 0.500000 0.433013
v 0.866025 -0.000000 0.500000
v 0.250000 0.866025 0.433013
v 0.433013 0.500000 0.750000
v 0.500000 -0.000000 0.866025
v -0.000000 1.000000 0.000000
v 0.000000 0.866025 0.500000
v -0.000000 0.500000 0.866026
v 0.000000 -0.000000 1.000000
v -0.250000 0.866025 0.433013
v -0.433013 0.500000 0.750000
v -0.500000 -0.000000 0.866025
v -0.500000 -0.558620 -0.866025
v -0.866025 -0.558620 -0.500000
v -1.000000 -0.558620 0.000000
v -0.433013 0.866025 0.250000
v -0.750000 0.500000 0.433013
v -0.866025 -0.000000 0.500000
v -0.866025 -0.558620 0.500000
v -0.500000 -0.558620 0.866025
v -0.500000 0.866025 0.000000
v -0.866025 0.500000 0.000000
v -1.000000 -0.000000 0.000000
v 0.000000 -0.558620 1.000000
v 0.500000 -0.558620 0.866025
v -0.433013 0.866025 -0.250000
v -0.750000 0.500000 -0.433013
v -0.866025 -0.000000 -0.500000
v 0.866025 -0.558620 0.500000
v 1.000000 -0.558620 0.000000
v -0.250000 0.866025 -0.433013
v -0.433013 0.500000 -0.750000
v -0.500000 -0.000000 -0.866025
v 0.866026 -0.558620 -0.500000
v 0.500000 -0.558620 -0.866025
v 0.000000 -0.558620 -1.000000
v 0.136289 -0.947497 0.260253
v 0.000000 -0.947497 0.181566
v -0.000000 -0.848882 0.232931
v 0.000000 -0.528040 0.213939
v 0.091806 -0.848882 0.285935
v 0.108253 -0.528040 0.276439
v 0.091806 -0.848882 0.391944
v 0.108253 -0.528040 0.401439
v -0.000000 -0.848882 0.444948
v -0.000000 -0.528040 0.463939
v -0.091806 -0.848882 0.391944
v -0.108253 -0.528040 0.401439
v -0.091806 -0.848882 0.285935
v -0.108253 -0.528040 0.276439
v 0.136289 -0.947497 0.417626
v -0.000000 -0.947497 0.496312
v -0.136289 -0.947497 0.417626
v -0.136289 -0.947497 0.260253
v 0.136289 -0.947497 -0.392705
v 0.000000 -0.947497 -0.471392
v -0.000000 -0.848882 -0.420028
v 0.000000 -0.528040 -0.439019
v 0.091806 -0.848882 -0.367023
v 0.108253 -0.528040 -0.376519
v 0.091806 -0.848882 -0.261015
v 0.108253 -0.528040 -0.251519
v -0.000000 -0.848882 -0.208010
v -0.000000 -0.528040 -0.189019
v -0.091806 -0.848882 -0.261015
v -0.108253 -0.528040 -0.251519
v -0.091806 -0.848882 -0.367023
v -0.108253 -0.528040 -0.376519
v 0.136289 -0.947497 -0.235333
v -0.000000 -0.947497 -0.156646
v -0.136289 -0.947497 -0.235333
v -0.136289 -0.947497 -0.392705
v 0.597060 -0.292126 1.375175
v 0.407203 -0.405305 1.433441
v 0.358694 -0.311496 1.311254
v 0.186992 -0.273974 0.878764
v 0.486584 -0.235256 1.272005
v 0.337794 -0.184076 0.832484
v 0.494489 -0.082777 1.291916
v 0.347115 -0.004280 0.855962
v 0.374504 -0.006537 1.351076
v 0.205634 0.085618 0.925721
v 0.246614 -0.082777 1.390325
v 0.054832 -0.004280 0.972001
v 0.238709 -0.235256 1.370414
v 0.045511 -0.184076 0.948522
v 0.608795 -0.065766 1.404734
v 0.430674 0.047414 1.492559
v 0.240817 -0.065766 1.550825
v 0.229082 -0.292126 1.521266
v 0.263374 -0.292126 -1.469085
v 0.430073 -0.405305 -1.361141
v 0.367682 -0.311496 -1.245424
v 0.146847 -0.273974 -0.835838
v 0.255392 -0.235256 -1.318137
v 0.014439 -0.184076 -0.921578
v 0.265558 -0.082777 -1.336994
v 0.026427 -0.004280 -0.943813
v 0.388016 -0.006537 -1.283138
v 0.170824 0.085618 -0.880309
v 0.500307 -0.082777 -1.210425
v 0.303231 -0.004280 -0.794569
v 0.490140 -0.235256 -1.191568
v 0.291243 -0.184076 -0.772334
v 0.278467 -0.065766 -1.497079
v 0.460259 0.047414 -1.417128
v 0.626958 -0.065766 -1.309184
v 0.611865 -0.292126 -1.281190
vt 0.736890 0.322096
vt 0.639125 0.285184
vt 0.683795 0.175426
vt 0.187522 0.002469
vt 0.135561 0.032469
vt 0.135561 0.092469
vt 0.187522 0.002469
vt 0.135561 0.032469
vt 0.135561 0.092469
vt 0.741939 0.167067
vt 0.777785 0.167369
vt 0.815546 0.182994
vt 0.831822 0.220103
vt 0.839165 0.252725
vt 0.829733 0.280263
vt 0.802998 0.307331
vt 0.680625 0.319635
vt 0.638230 0.217650
vt 0.187522 0.122469
vt 0.239484 0.092469
vt 0.239484 0.032469
vt 0.187522 0.122469
vt 0.239484 0.092469
vt 0.239484 0.032469
vt 0.187522 0.002469
vt 0.135561 0.032469
vt 0.135561 0.092469
vt 0.187522 0.122469
vt 0.239484 0.092469
vt 0.239484 0.032469
vt 0.187522 0.002469
vt 0.135561 0.032469
vt 0.135561 0.092469
vt 0.187522 0.122469
vt 0.239484 0.092469
vt 0.239484 0.032469
vt 0.750000 0.666667
vt 0.666667 0.500000
vt 0.750000 0.500000
vt 0.750000 0.833333
vt 0.708333 1.000000
vt 0.666667 0.833333
vt 0.666667 0.666667
vt 0.583333 0.666667
vt 0.583333 0.500000
vt 0.625000 1.000000
vt 0.583333 0.833333
vt 0.500000 0.833333
vt 0.500000 0.666667
vt 0.500000 0.500000
vt 0.541667 1.000000
vt 0.416667 0.666667
vt 0.416667 0.500000
vt 0.458333 1.000000
vt 0.416667 0.833333
vt 0.333333 0.666667
vt 0.333333 0.500000
vt 0.375000 1.000000
vt 0.333333 0.833333
vt 0.250000 0.833333
vt 0.250000 0.666667
vt 0.250000 0.500000
vt 0.291667 1.000000
vt 0.166667 0.500000
vt 0.208333 1.000000
vt 0.166667 0.833333
vt 0.166667 0.666667
vt 0.750000 0.391486
vt 0.083333 0.500000
vt 0.125000 1.000000
vt 0.083333 0.833333
vt 0.500000 0.391486
vt 0.083333 0.666667
vt 0.916667 0.500000
vt 1.000000 0.391486
vt 1.000000 0.500000
vt 0.000000 0.500000
vt 0.041667 1.000000
vt 0.000000 0.833333
vt 0.083333 0.391486
vt 0.833333 0.500000
vt 0.916667 0.391486
vt 0.000000 0.666667
vt 0.583333 0.391486
vt 1.000000 0.666667
vt 1.000000 0.833333
vt 0.958333 1.000000
vt 0.916667 0.833333
vt 0.666667 0.391486
vt 0.416667 0.391486
vt 0.916667 0.666667
vt 0.875000 1.000000
vt 0.833333 0.833333
vt 0.250000 0.391486
vt 0.833333 0.391486
vt 0.833333 0.666667
vt 0.166667 0.391486
vt 0.791667 1.000000
vt 0.333333 0.391486
vt 0.041689 0.124969
vt 0.083355 0.124969
vt 0.083355 0.124969
vt 0.166689 0.124969
vt 0.208355 0.124969
vt 0.208355 0.124969
vt 0.250022 0.249969
vt 0.250022 0.124969
vt 0.166689 0.249969
vt 0.125022 0.124969
vt 0.166689 0.124969
vt 0.250022 0.124969
vt 0.208355 0.249969
vt 0.208355 0.124969
vt 0.250022 0.124969
vt 0.250022 0.124969
vt 0.041689 0.124969
vt 0.083355 0.124969
vt 0.083355 0.124969
vt 0.166689 0.249969
vt 0.125022 0.124969
vt 0.250022 0.249969
vt 0.000022 0.124969
vt 0.041689 0.124969
vt 0.125022 0.249969
vt 0.125022 0.124969
vt 0.083355 0.249969
vt 0.208355 0.249969
vt 0.208355 0.124969
vt 0.041689 0.249969
vt 0.166689 0.124969
vt 0.000022 0.124969
vt 0.041689 0.124969
vt 0.125022 0.249969
vt 0.125022 0.124969
vt 0.083355 0.249969
vt 0.041689 0.249969
vt 0.000022 0.124969
vt 0.166689 0.124969
vt 0.000000 0.391486
vt 0.000022 0.124969
vt 0.000022 0.249969
vt 0.000022 0.249969
vt 0.166689 0.124969
vt 0.208355 0.124969
vt 0.208355 0.124969
vt 0.250022 0.249969
vt 0.250022 0.124969
vt 0.250022 0.124969
vt 0.208355 0.249969
vt 0.041689 0.124969
vt 0.083355 0.124969
vt 0.083355 0.124969
vt 0.166689 0.249969
vt 0.125022 0.124969
vt 0.000022 0.124969
vt 0.041689 0.124969
vt 0.125022 0.249969
vt 0.125022 0.124969
vt 0.083355 0.249969
vt 0.041689 0.249969
vt 0.166689 0.124969
vt 0.000022 0.124969
vt 0.000022 0.249969
vt 0.166689 0.124969
vt 0.208355 0.124969
vt 0.208355 0.124969
vt 0.250022 0.249969
vt 0.250022 0.124969
vt 0.250022 0.124969
vt 0.208355 0.249969
vt 0.041689 0.124969
vt 0.083355 0.124969
vt 0.083355 0.124969
vt 0.166689 0.249969
vt 0.125022 0.124969
vt 0.000022 0.124969
vt 0.041689 0.124969
vt 0.125022 0.249969
vt 0.125022 0.124969
vt 0.083355 0.249969
vt 0.041689 0.249969
vt 0.166689 0.124969
vt 0.000022 0.124969
vt 0.000022 0.249969
vn 0.0000 -1.0000 0.0000
vn 0.3654 -0.1391 0.9204
vn 0.4700 -0.1391 -0.8716
vn 0.4700 -0.1391 -0.8717
vn 0.0000 0.4823 -0.8760
vn 0.4959 0.1278 -0.8589
vn 0.0000 0.1278 -0.9918
vn 0.0000 0.8474 -0.5309
vn 0.0000 1.0000 0.0000
vn 0.2654 0.8474 -0.4598
vn 0.4380 0.4823 -0.7586
vn 0.7586 0.4823 -0.4380
vn 0.8589 0.1278 -0.4959
vn 0.4598 0.8474 -0.2655
vn 0.5309 0.8474 0.0000
vn 0.8760 0.4823 0.0000
vn 0.9918 0.1278 0.0000
vn 0.7586 0.4823 0.4380
vn 0.8589 0.1278 0.4959
vn 0.4598 0.8474 0.2654
vn 0.4380 0.4823 0.7586
vn 0.4959 0.1278 0.8589
vn 0.2654 0.8474 0.4598
vn 0.0000 0.8474 0.5309
vn 0.0000 0.4823 0.8760
vn 0.0000 0.1278 0.9918
vn -0.4959 0.1278 0.8589
vn -0.2654 0.8474 0.4598
vn -0.4380 0.4823 0.7586
vn 0.0000 -0.6532 -0.7571
vn -0.8589 0.1278 0.4959
vn -0.4598 0.8474 0.2654
vn 0.7571 -0.6532 0.0000
vn -0.7586 0.4823 0.4380
vn -0.8589 0.1278 -0.4959
vn -0.7571 -0.6532 0.0000
vn -0.9918 0.1278 0.0000
vn -0.5309 0.8474 0.0000
vn -0.6557 -0.6532 0.3786
vn -0.4959 0.1278 -0.8589
vn -0.6557 -0.6532 -0.3786
vn -0.8760 0.4823 0.0000
vn 0.6557 -0.6532 -0.3786
vn -0.4598 0.8474 -0.2654
vn 0.3786 -0.6532 -0.6557
vn 0.6557 -0.6532 0.3786
vn -0.7586 0.4823 -0.4380
vn -0.2655 0.8474 -0.4598
vn 0.0000 -0.6532 0.7571
vn -0.3786 -0.6532 -0.6557
vn -0.4380 0.4823 -0.7586
vn -0.3786 -0.6532 0.6557
vn 0.3786 -0.6532 0.6557
vn -0.8430 0.2287 -0.4867
vn -0.7835 -0.4259 0.4524
vn -0.8430 0.2287 0.4867
vn 0.8430 0.2287 0.4867
vn 0.7835 -0.4259 -0.4524
vn 0.8430 0.2287 -0.4867
vn 0.0000 -0.0591 -0.9982
vn 0.0000 0.2287 -0.9735
vn 0.8645 -0.0591 0.4991
vn 0.0000 0.2287 0.9735
vn 0.0000 -0.4259 -0.9048
vn 0.8645 -0.0591 -0.4991
vn -0.7835 -0.4259 -0.4524
vn 0.0000 -0.0591 0.9982
vn 0.0000 -0.4259 0.9048
vn -0.8645 -0.0591 0.4991
vn -0.8645 -0.0591 -0.4991
vn 0.7835 -0.4259 0.4524
vn 0.7250 0.5138 -0.4586
vn 0.8607 -0.5072 0.0444
vn 0.6750 -0.4502 -0.5845
vn -0.0296 -0.9967 -0.0747
vn -0.1335 -0.9322 -0.3364
vn 0.1092 -0.9552 0.2750
vn 0.7995 -0.5025 -0.3291
vn -0.8921 -0.4502 0.0376
vn -0.5494 0.3887 0.7396
vn -0.8422 0.5138 0.1635
vn 0.8507 0.4860 -0.2000
vn -0.0336 0.9958 -0.0846
vn -0.5958 -0.5072 0.6226
vn 0.0728 0.9803 0.1834
vn 0.2021 0.8367 0.5090
vn -0.7563 0.4860 0.4379
vn -0.8075 -0.5025 0.3088
vn 0.9071 0.3887 0.1614
vn -0.8174 0.5138 -0.2603
vn -0.5194 -0.5072 -0.6877
vn -0.8817 -0.4502 -0.1411
vn -0.0381 -0.9967 0.0707
vn -0.1718 -0.9322 0.3186
vn 0.1404 -0.9552 -0.2604
vn -0.7661 -0.5025 -0.4006
vn 0.6024 -0.4502 0.6591
vn 0.9197 0.3887 -0.0548
vn 0.6667 0.5138 0.5398
vn -0.7002 0.4860 -0.5229
vn -0.0432 0.9958 0.0801
vn 0.8600 -0.5072 0.0560
vn 0.0937 0.9803 -0.1737
vn 0.2599 0.8367 -0.4820
vn 0.8217 0.4860 0.2976
vn 0.7558 -0.5025 0.4199
vn -0.4596 0.3887 -0.7985
usemtl Material.001
s off
f 33/1/1 28/2/1 26/3/1
f 65/4/1 66/5/1 67/6/1
f 83/7/1 84/8/1 85/9/1
f 26/3/1 49/10/1 48/11/1
f 48/11/1 47/12/1 43/13/1
f 43/13/1 42/14/1 38/15/1
f 38/15/1 37/16/1 33/1/1
f 33/1/1 32/17/1 28/2/1
f 28/2/1 27/18/1 26/3/1
f 26/3/1 48/11/1 43/13/1
f 43/13/1 38/15/1 26/3/1
f 38/15/1 33/1/1 26/3/1
f 67/6/1 51/19/1 65/4/1
f 51/19/1 50/20/1 65/4/1
f 50/20/1 64/21/1 65/4/1
f 85/9/1 69/22/1 83/7/1
f 69/22/1 68/23/1 83/7/1
f 68/23/1 82/24/1 83/7/1
f 101/25/2 102/26/2 103/27/2
f 103/27/2 87/28/2 101/25/2
f 87/28/2 86/29/2 101/25/2
f 86/29/2 100/30/2 101/25/2
f 119/31/3 120/32/3 121/33/3
f 121/33/4 105/34/4 119/31/4
f 105/34/4 104/35/4 119/31/4
f 104/35/4 118/36/4 119/31/4
s 1
f 2/37/5 6/38/6 3/39/7
f 1/40/8 19/41/9 4/42/10
f 1/40/8 5/43/11 2/37/5
f 4/42/10 8/44/12 5/43/11
f 6/38/6 8/44/12 9/45/13
f 4/42/10 19/46/9 7/47/14
f 8/44/12 10/48/15 11/49/16
f 8/44/12 12/50/17 9/45/13
f 7/47/14 19/51/9 10/48/15
f 10/48/15 14/52/18 11/49/16
f 11/49/16 15/53/19 12/50/17
f 10/48/15 19/54/9 13/55/20
f 13/55/20 17/56/21 14/52/18
f 14/52/18 18/57/22 15/53/19
f 13/55/20 19/58/9 16/59/23
f 17/56/21 20/60/24 21/61/25
f 17/56/21 22/62/26 18/57/22
f 16/59/23 19/63/9 20/60/24
f 21/61/25 25/64/27 22/62/26
f 20/60/24 19/65/9 23/66/28
f 21/61/25 23/66/28 24/67/29
f 6/38/6 49/68/30 3/39/7
f 24/67/29 31/69/31 25/64/27
f 23/66/28 19/70/9 29/71/32
f 15/53/19 43/72/33 12/50/17
f 23/66/28 30/73/34 24/67/29
f 41/74/35 28/75/36 36/76/37
f 30/73/34 36/77/37 31/69/31
f 29/71/32 19/78/9 34/79/38
f 36/77/37 32/80/39 31/69/31
f 46/81/40 27/82/41 41/74/35
f 29/71/32 35/83/42 30/73/34
f 12/50/17 47/84/43 9/45/13
f 35/85/42 41/74/35 36/76/37
f 34/86/38 19/87/9 39/88/44
f 9/45/13 48/89/45 6/38/6
f 18/57/22 42/90/46 15/53/19
f 35/85/42 39/88/44 40/91/47
f 40/91/47 46/81/40 41/74/35
f 39/88/44 19/92/9 44/93/48
f 25/64/27 37/94/49 22/62/26
f 3/39/7 26/95/50 46/81/40
f 40/91/47 44/93/48 45/96/51
f 31/69/31 33/97/52 25/64/27
f 44/93/48 19/98/9 1/40/8
f 22/62/26 38/99/53 18/57/22
f 45/96/51 1/40/8 2/37/5
f 46/81/40 2/37/5 3/39/7
f 80/100/54 84/101/55 78/102/56
f 56/103/57 50/104/58 54/105/59
f 53/106/60 54/105/59 52/107/61
f 75/108/62 76/109/63 74/110/57
f 52/107/61 50/104/58 51/111/64
f 55/112/65 56/103/57 54/105/59
f 72/113/59 69/114/64 70/115/61
f 62/116/54 66/117/55 60/118/56
f 57/119/62 58/120/63 56/103/57
f 71/121/60 72/113/59 70/115/61
f 52/122/61 67/123/66 62/116/54
f 59/124/67 60/118/56 58/120/63
f 60/118/56 65/125/68 58/120/63
f 61/126/69 62/116/54 60/118/56
f 73/127/65 74/110/57 72/113/59
f 74/110/57 68/128/58 72/113/59
f 63/129/70 52/122/61 62/116/54
f 56/103/57 65/125/68 64/130/71
f 80/100/54 69/131/64 85/132/66
f 77/133/67 78/102/56 76/109/63
f 78/102/56 83/134/68 76/109/63
f 79/135/69 80/100/54 78/102/56
f 81/136/70 70/137/61 80/100/54
f 74/110/57 83/134/68 82/138/71
f 2/37/5 5/43/11 6/38/6
f 1/40/8 4/42/10 5/43/11
f 4/42/10 7/47/14 8/44/12
f 6/38/6 5/43/11 8/44/12
f 8/44/12 7/47/14 10/48/15
f 8/44/12 11/49/16 12/50/17
f 10/48/15 13/55/20 14/52/18
f 11/49/16 14/52/18 15/53/19
f 13/55/20 16/59/23 17/56/21
f 14/52/18 17/56/21 18/57/22
f 17/56/21 16/59/23 20/60/24
f 17/56/21 21/61/25 22/62/26
f 21/61/25 24/67/29 25/64/27
f 21/61/25 20/60/24 23/66/28
f 6/38/6 48/89/45 49/68/30
f 24/67/29 30/73/34 31/69/31
f 15/53/19 42/90/46 43/72/33
f 23/66/28 29/71/32 30/73/34
f 41/74/35 27/82/41 28/75/36
f 30/73/34 35/83/42 36/77/37
f 36/77/37 28/139/36 32/80/39
f 46/81/40 26/95/50 27/82/41
f 29/71/32 34/79/38 35/83/42
f 12/50/17 43/72/33 47/84/43
f 35/85/42 40/91/47 41/74/35
f 9/45/13 47/84/43 48/89/45
f 18/57/22 38/99/53 42/90/46
f 35/85/42 34/86/38 39/88/44
f 40/91/47 45/96/51 46/81/40
f 25/64/27 33/97/52 37/94/49
f 3/39/7 49/68/30 26/95/50
f 40/91/47 39/88/44 44/93/48
f 31/69/31 32/80/39 33/97/52
f 22/62/26 37/94/49 38/99/53
f 45/96/51 44/93/48 1/40/8
f 46/81/40 45/96/51 2/37/5
f 80/100/54 85/132/66 84/101/55
f 56/103/57 64/130/71 50/104/58
f 53/106/60 55/112/65 54/105/59
f 75/108/62 77/133/67 76/109/63
f 52/107/61 54/105/59 50/104/58
f 55/112/65 57/119/62 56/103/57
f 72/113/59 68/128/58 69/114/64
f 62/116/54 67/123/66 66/117/55
f 57/119/62 59/124/67 58/120/63
f 71/121/60 73/127/65 72/113/59
f 52/122/61 51/140/64 67/123/66
f 59/124/67 61/126/69 60/118/56
f 60/118/56 66/117/55 65/125/68
f 61/126/69 63/129/70 62/116/54
f 73/127/65 75/108/62 74/110/57
f 74/110/57 82/138/71 68/128/58
f 63/129/70 53/141/60 52/122/61
f 56/103/57 58/120/63 65/125/68
f 80/100/54 70/137/61 69/131/64
f 77/133/67 79/135/69 78/102/56
f 78/102/56 84/101/55 83/134/68
f 79/135/69 81/136/70 80/100/54
f 81/136/70 71/142/60 70/137/61
f 74/110/57 76/109/63 83/134/68
f 92/143/72 86/144/73 90/145/74
f 89/146/75 90/145/74 88/147/76
f 88/147/76 86/144/73 87/148/77
f 91/149/78 92/143/72 90/145/74
f 98/150/79 102/151/80 96/152/81
f 93/153/82 94/154/83 92/143/72
f 88/155/76 103/156/84 98/150/79
f 95/157/85 96/152/81 94/154/83
f 96/152/81 101/158/86 94/154/83
f 97/159/87 98/150/79 96/152/81
f 99/160/88 88/155/76 98/150/79
f 92/143/72 101/158/86 100/161/89
f 92/143/72 100/161/89 86/144/73
f 89/146/75 91/149/78 90/145/74
f 88/147/76 90/145/74 86/144/73
f 91/149/78 93/153/82 92/143/72
f 98/150/79 103/156/84 102/151/80
f 93/153/82 95/157/85 94/154/83
f 88/155/76 87/162/77 103/156/84
f 95/157/85 97/159/87 96/152/81
f 96/152/81 102/151/80 101/158/86
f 97/159/87 99/160/88 98/150/79
f 99/160/88 89/163/75 88/155/76
f 92/143/72 94/154/83 101/158/86
f 110/164/90 104/165/91 108/166/92
f 107/167/93 108/166/92 106/168/94
f 106/168/94 104/165/91 105/169/95
f 109/170/96 110/164/90 108/166/92
f 116/171/97 120/172/98 114/173/99
f 111/174/100 112/175/101 110/164/90
f 106/176/94 121/177/102 116/171/97
f 113/178/103 114/173/99 112/175/101
f 114/173/99 119/179/104 112/175/101
f 115/180/105 116/171/97 114/173/99
f 117/181/106 106/176/94 116/171/97
f 110/164/90 119/179/104 118/182/107
f 110/164/90 118/182/107 104/165/91
f 107/167/93 109/170/96 108/166/92
f 106/168/94 108/166/92 104/165/91
f 109/170/96 111/174/100 110/164/90
f 116/171/97 121/177/102 120/172/98
f 111/174/100 113/178/103 112/175/101
f 106/176/94 105/183/95 121/177/102
f 113/178/103 115/180/105 114/173/99
f 114/173/99 120/172/98 119/179/104
f 115/180/105 117/181/106 116/171/97
f 117/181/106 107/184/93 106/176/94
f 110/164/90 112/175/101 119/179/104
