# Blender v2.93.1 OBJ File: 'scary_ghost.blend'
# www.blender.org
mtllib scary_ghost.mtl
o Sphere_Sphere.002
v 0.000000 0.866025 -0.500000
v 0.000000 0.500000 -0.866025
v 0.000000 -0.000000 -1.000000
v 0.250000 0.866025 -0.433013
v 0.433013 0.500000 -0.750000
v 0.500000 -0.000000 -0.866025
v 0.433013 0.866025 -0.250000
v 0.750000 0.500000 -0.433013
v 0.866026 -0.000000 -0.500000
v 0.500000 0.866025 0.000000
v 0.866026 0.500000 0.000000
v 1.000000 -0.000000 0.000000
v 0.433013 0.866025 0.250000
v 0.750000 0.500000 0.433013
v 0.866025 -0.000000 0.500000
v 0.250000 0.866025 0.433013
v 0.433013 0.500000 0.750000
v 0.500000 -0.000000 0.866025
v -0.000000 1.000000 0.000000
v 0.000000 0.866025 0.500000
v -0.000000 0.500000 0.866026
v 0.000000 -0.000000 1.000000
v -0.250000 0.866025 0.433013
v -0.433013 0.500000 0.750000
v -0.500000 -0.000000 0.866025
v -0.500000 -0.558620 -0.866025
v -0.866025 -0.558620 -0.500000
v -1.000000 -0.558620 0.000000
v -0.433013 0.866025 0.250000
v -0.750000 0.500000 0.433013
v -0.866025 -0.000000 0.500000
v -0.866025 -0.558620 0.500000
v -0.500000 -0.558620 0.866025
v -0.500000 0.866025 0.000000
v -0.866025 0.500000 0.000000
v -1.000000 -0.000000 0.000000
v 0.000000 -0.558620 1.000000
v 0.500000 -0.558620 0.866025
v -0.433013 0.866025 -0.250000
v -0.750000 0.500000 -0.433013
v -0.866025 -0.000000 -0.500000
v 0.866025 -0.558620 0.500000
v 1.000000 -0.558620 0.000000
v -0.250000 0.866025 -0.433013
v -0.433013 0.500000 -0.750000
v -0.500000 -0.000000 -0.866025
v 0.866026 -0.558620 -0.500000
v 0.500000 -0.558620 -0.866025
v 0.000000 -0.558620 -1.000000
v 0.136289 -0.947497 0.260253
v 0.000000 -0.947497 0.181566
v -0.000000 -0.848882 0.232931
v 0.000000 -0.528040 0.213939
v 0.091806 -0.848882 0.285935
v 0.108253 -0.528040 0.276439
v 0.091806 -0.848882 0.391944
v 0.108253 -0.528040 0.401439
v -0.000000 -0.848882 0.444948
v -0.000000 -0.528040 0.463939
v -0.091806 -0.848882 0.391944
v -0.108253 -0.528040 0.401439
v -0.091806 -0.848882 0.285935
v -0.108253 -0.528040 0.276439
v 0.136289 -0.947497 0.417626
v -0.000000 -0.947497 0.496312
v -0.136289 -0.947497 0.417626
v -0.136289 -0.947497 0.260253
v 0.136289 -0.947497 -0.392705
v 0.000000 -0.947497 -0.471392
v -0.000000 -0.848882 -0.420028
v 0.000000 -0.528040 -0.439019
v 0.091806 -0.848882 -0.367023
v 0.108253 -0.528040 -0.376519
v 0.091806 -0.848882 -0.261015
v 0.108253 -0.528040 -0.251519
v -0.000000 -0.848882 -0.208010
v -0.000000 -0.528040 -0.189019
v -0.091806 -0.848882 -0.261015
v -0.108253 -0.528040 -0.251519
v -0.091806 -0.848882 -0.367023
v -0.108253 -0.528040 -0.376519
v 0.136289 -0.947497 -0.235333
v -0.000000 -0.947497 -0.156646
v -0.136289 -0.947497 -0.235333
v -0.136289 -0.947497 -0.392705
v 0.597060 -0.292126 1.375175
v 0.407203 -0.405305 1.433441
v 0.358694 -0.311496 1.311254
v 0.186992 -0.273974 0.878764
v 0.486584 -0.235256 1.272005
v 0.337794 -0.184076 0.832484
v 0.494489 -0.082777 1.291916
v 0.347115 -0.004280 0.855962
v 0.374504 -0.006537 1.351076
v 0.205634 0.085618 0.925721
v 0.246614 -0.082777 1.390325
v 0.054832 -0.004280 0.972001
v 0.238709 -0.235256 1.370414
v 0.045511 -0.184076 0.948522
v 0.608795 -0.065766 1.404734
v 0.430674 0.047414 1.492559
v 0.240817 -0.065766 1.550825
v 0.229082 -0.292126 1.521266
v 0.263374 -0.292126 -1.469085
v 0.430073 -0.405305 -1.361141
v 0.367682 -0.311496 -1.245424
v 0.146847 -0.273974 -0.835838
v 0.255392 -0.235256 -1.318137
v 0.014439 -0.184076 -0.921578
v 0.265558 -0.082777 -1.336994
v 0.026427 -0.004280 -0.943813
v 0.388016 -0.006537 -1.283138
v 0.170824 0.085618 -0.880309
v 0.500307 -0.082777 -1.210425
v 0.303231 -0.004280 -0.794569
v 0.490140 -0.235256 -1.191568
v 0.291243 -0.184076 -0.772334
v 0.278467 -0.065766 -1.497079
v 0.460259 0.047414 -1.417128
v 0.626958 -0.065766 -1.309184
v 0.611865 -0.292126 -1.281190
vt 0.750000 0.666667
vt 0.666667 0.500000
vt 0.750000 0.500000
vt 0.750000 0.833333
vt 0.708333 1.000000
vt 0.666667 0.833333
vt 0.666667 0.666667
vt 0.583333 0.666667
vt 0.583333 0.500000
vt 0.625000 1.000000
vt 0.583333 0.833333
vt 0.500000 0.833333
vt 0.500000 0.666667
vt 0.500000 0.500000
vt 0.541667 1.000000
vt 0.416667 0.666667
vt 0.416667 0.500000
vt 0.458333 1.000000
vt 0.416667 0.833333
vt 0.333333 0.666667
vt 0.333333 0.500000
vt 0.375000 1.000000
vt 0.333333 0.833333
vt 0.250000 0.833333
vt 0.250000 0.666667
vt 0.250000 0.500000
vt 0.291667 1.000000
vt 0.166667 0.500000
vt 0.208333 1.000000
vt 0.166667 0.833333
vt 0.166667 0.666667
vt 0.750000 0.391486
vt 0.083333 0.500000
vt 0.125000 1.000000
vt 0.083333 0.833333
vt 0.500000 0.391486
vt 0.736890 0.322096
vt 0.639125 0.285184
vt 0.683795 0.175426
vt 0.083333 0.666667
vt 0.916667 0.500000
vt 1.000000 0.391486
vt 1.000000 0.500000
vt 0.000000 0.500000
vt 0.041667 1.000000
vt 0.000000 0.833333
vt 0.083333 0.391486
vt 0.833333 0.500000
vt 0.916667 0.391486
vt 0.000000 0.666667
vt 0.583333 0.391486
vt 1.000000 0.666667
vt 1.000000 0.833333
vt 0.958333 1.000000
vt 0.916667 0.833333
vt 0.666667 0.391486
vt 0.416667 0.391486
vt 0.916667 0.666667
vt 0.875000 1.000000
vt 0.833333 0.833333
vt 0.250000 0.391486
vt 0.833333 0.391486
vt 0.833333 0.666667
vt 0.166667 0.391486
vt 0.791667 1.000000
vt 0.333333 0.391486
vt 0.041689 0.124969
vt 0.083355 0.124969
vt 0.083355 0.124969
vt 0.166689 0.124969
vt 0.208355 0.124969
vt 0.208355 0.124969
vt 0.250022 0.249969
vt 0.250022 0.124969
vt 0.166689 0.249969
vt 0.125022 0.124969
vt 0.166689 0.124969
vt 0.250022 0.124969
vt 0.208355 0.249969
vt 0.208355 0.124969
vt 0.250022 0.124969
vt 0.250022 0.124969
vt 0.041689 0.124969
vt 0.083355 0.124969
vt 0.083355 0.124969
vt 0.166689 0.249969
vt 0.125022 0.124969
vt 0.250022 0.249969
vt 0.000022 0.124969
vt 0.041689 0.124969
vt 0.125022 0.249969
vt 0.187522 0.002469
vt 0.135561 0.032469
vt 0.135561 0.092469
vt 0.125022 0.124969
vt 0.083355 0.249969
vt 0.208355 0.249969
vt 0.208355 0.124969
vt 0.041689 0.249969
vt 0.166689 0.124969
vt 0.000022 0.124969
vt 0.041689 0.124969
vt 0.125022 0.249969
vt 0.187522 0.002469
vt 0.135561 0.032469
vt 0.135561 0.092469
vt 0.125022 0.124969
vt 0.083355 0.249969
vt 0.041689 0.249969
vt 0.000022 0.124969
vt 0.166689 0.124969
vt 0.741939 0.167067
vt 0.777785 0.167369
vt 0.815546 0.182994
vt 0.831822 0.220103
vt 0.839165 0.252725
vt 0.829733 0.280263
vt 0.802998 0.307331
vt 0.680625 0.319635
vt 0.638230 0.217650
vt 0.000000 0.391486
vt 0.000022 0.124969
vt 0.187522 0.122469
vt 0.239484 0.092469
vt 0.239484 0.032469
vt 0.000022 0.249969
vt 0.187522 0.122469
vt 0.239484 0.092469
vt 0.239484 0.032469
vt 0.000022 0.249969
vt 0.166689 0.124969
vt 0.208355 0.124969
vt 0.208355 0.124969
vt 0.250022 0.249969
vt 0.250022 0.124969
vt 0.250022 0.124969
vt 0.208355 0.249969
vt 0.041689 0.124969
vt 0.083355 0.124969
vt 0.083355 0.124969
vt 0.166689 0.249969
vt 0.125022 0.124969
vt 0.000022 0.124969
vt 0.041689 0.124969
vt 0.125022 0.249969
vt 0.187522 0.002469
vt 0.135561 0.032469
vt 0.135561 0.092469
vt 0.125022 0.124969
vt 0.083355 0.249969
vt 0.041689 0.249969
vt 0.166689 0.124969
vt 0.000022 0.124969
vt 0.187522 0.122469
vt 0.239484 0.092469
vt 0.239484 0.032469
vt 0.000022 0.249969
vt 0.166689 0.124969
vt 0.208355 0.124969
vt 0.208355 0.124969
vt 0.250022 0.249969
vt 0.250022 0.124969
vt 0.250022 0.124969
vt 0.208355 0.249969
vt 0.041689 0.124969
vt 0.083355 0.124969
vt 0.083355 0.124969
vt 0.166689 0.249969
vt 0.125022 0.124969
vt 0.000022 0.124969
vt 0.041689 0.124969
vt 0.125022 0.249969
vt 0.187522 0.002469
vt 0.135561 0.032469
vt 0.135561 0.092469
vt 0.125022 0.124969
vt 0.083355 0.249969
vt 0.041689 0.249969
vt 0.166689 0.124969
vt 0.000022 0.124969
vt 0.187522 0.122469
vt 0.239484 0.092469
vt 0.239484 0.032469
vt 0.000022 0.249969
vn 0.2506 0.2506 -0.9351
vn 0.0692 0.9636 -0.2582
vn 0.1862 0.6947 -0.6947
vn 0.5086 0.6947 -0.5086
vn 0.6846 0.2506 -0.6846
vn 0.1890 0.9636 -0.1890
vn 0.6947 0.6947 -0.1862
vn 0.9351 0.2506 -0.2506
vn 0.2582 0.9636 -0.0692
vn 0.6947 0.6947 0.1862
vn 0.9351 0.2506 0.2506
vn 0.2582 0.9636 0.0692
vn 0.5086 0.6947 0.5086
vn 0.6846 0.2506 0.6846
vn 0.1890 0.9636 0.1890
vn 0.1862 0.6947 0.6947
vn 0.2506 0.2506 0.9351
vn 0.0692 0.9636 0.2582
vn -0.2506 0.2506 0.9351
vn -0.0692 0.9636 0.2582
vn -0.1862 0.6947 0.6947
vn 0.2588 0.0000 -0.9659
vn -0.6846 0.2506 0.6846
vn -0.1890 0.9636 0.1890
vn 0.9659 0.0000 0.2588
vn 0.0000 -1.0000 0.0000
vn -0.5086 0.6947 0.5086
vn -0.9659 0.0000 -0.2588
vn -0.9351 0.2506 0.2506
vn -0.2582 0.9636 0.0692
vn -0.9659 0.0000 0.2588
vn -0.7071 0.0000 -0.7071
vn -0.6947 0.6947 0.1862
vn 0.9659 0.0000 -0.2588
vn -0.9351 0.2506 -0.2506
vn -0.2582 0.9636 -0.0692
vn 0.7071 0.0000 -0.7071
vn 0.7071 0.0000 0.7071
vn -0.6947 0.6947 -0.1862
vn -0.6846 0.2506 -0.6846
vn -0.1890 0.9636 -0.1890
vn -0.2588 0.0000 0.9659
vn -0.2588 0.0000 -0.9659
vn -0.5086 0.6947 -0.5086
vn -0.7071 0.0000 0.7071
vn -0.0692 0.9636 -0.2582
vn 0.2588 0.0000 0.9659
vn -0.1862 0.6947 -0.6947
vn -0.2506 0.2506 -0.9351
vn -0.9116 0.4112 0.0000
vn 0.9116 0.4112 0.0000
vn 0.4993 -0.0512 -0.8649
vn 0.4993 -0.0512 0.8649
vn 0.4558 0.4112 -0.7894
vn 0.9987 -0.0512 0.0000
vn -0.4558 0.4112 -0.7894
vn -0.4993 -0.0512 0.8649
vn -0.4558 0.4112 0.7894
vn -0.9987 -0.0512 0.0000
vn -0.4993 -0.0512 -0.8649
vn 0.4558 0.4112 0.7894
vn 0.6970 0.0572 -0.7148
vn 0.4384 -0.8636 -0.2490
vn 0.2328 -0.7245 -0.6487
vn 0.9469 -0.0071 -0.3214
vn -0.9975 0.0572 -0.0421
vn 0.5272 0.8494 -0.0253
vn -0.6144 -0.7245 -0.3124
vn -0.4010 0.8494 0.3432
vn 0.3654 -0.1391 0.9204
vn -0.5333 0.8390 -0.1082
vn -0.9095 -0.0071 0.4156
vn -0.4898 -0.8636 0.1195
vn 0.3139 0.8390 -0.4445
vn -0.9956 0.0572 -0.0742
vn -0.4726 -0.8636 -0.1757
vn -0.6465 -0.7245 0.2388
vn -0.8550 -0.0071 -0.5186
vn 0.6091 0.0572 0.7910
vn -0.3584 0.8494 -0.3875
vn 0.1558 -0.7245 0.6714
vn 0.5207 0.8494 0.0864
vn 0.4700 -0.1391 -0.8716
vn 0.2601 0.8390 0.4780
vn 0.9031 -0.0071 0.4293
vn 0.4065 -0.8636 0.2983
vn -0.5423 0.8390 0.0454
vn 0.4700 -0.1391 -0.8717
usemtl None
s off
f 2/1/1 6/2/1 3/3/1
f 1/4/2 19/5/2 4/6/2
f 1/4/3 5/7/3 2/1/3
f 4/6/4 8/8/4 5/7/4
f 6/2/5 8/8/5 9/9/5
f 4/6/6 19/10/6 7/11/6
f 8/8/7 10/12/7 11/13/7
f 8/8/8 12/14/8 9/9/8
f 7/11/9 19/15/9 10/12/9
f 10/12/10 14/16/10 11/13/10
f 11/13/11 15/17/11 12/14/11
f 10/12/12 19/18/12 13/19/12
f 13/19/13 17/20/13 14/16/13
f 14/16/14 18/21/14 15/17/14
f 13/19/15 19/22/15 16/23/15
f 17/20/16 20/24/16 21/25/16
f 17/20/17 22/26/17 18/21/17
f 16/23/18 19/27/18 20/24/18
f 21/25/19 25/28/19 22/26/19
f 20/24/20 19/29/20 23/30/20
f 21/25/21 23/30/21 24/31/21
f 6/2/22 49/32/22 3/3/22
f 24/31/23 31/33/23 25/28/23
f 23/30/24 19/34/24 29/35/24
f 15/17/25 43/36/25 12/14/25
f 33/37/26 28/38/26 26/39/26
f 23/30/27 30/40/27 24/31/27
f 41/41/28 28/42/28 36/43/28
f 30/40/29 36/44/29 31/33/29
f 29/35/30 19/45/30 34/46/30
f 36/44/31 32/47/31 31/33/31
f 46/48/32 27/49/32 41/41/32
f 29/35/33 35/50/33 30/40/33
f 12/14/34 47/51/34 9/9/34
f 35/52/35 41/41/35 36/43/35
f 34/53/36 19/54/36 39/55/36
f 9/9/37 48/56/37 6/2/37
f 18/21/38 42/57/38 15/17/38
f 35/52/39 39/55/39 40/58/39
f 40/58/40 46/48/40 41/41/40
f 39/55/41 19/59/41 44/60/41
f 25/28/42 37/61/42 22/26/42
f 3/3/43 26/62/43 46/48/43
f 40/58/44 44/60/44 45/63/44
f 31/33/45 33/64/45 25/28/45
f 44/60/46 19/65/46 1/4/46
f 22/26/47 38/66/47 18/21/47
f 45/63/48 1/4/48 2/1/48
f 46/48/49 2/1/49 3/3/49
f 80/67/50 84/68/50 78/69/50
f 56/70/51 50/71/51 54/72/51
f 53/73/52 54/72/52 52/74/52
f 75/75/53 76/76/53 74/77/53
f 52/74/54 50/71/54 51/78/54
f 55/79/55 56/70/55 54/72/55
f 72/80/54 69/81/54 70/82/54
f 62/83/50 66/84/50 60/85/50
f 57/86/53 58/87/53 56/70/53
f 71/88/52 72/80/52 70/82/52
f 52/89/56 67/90/56 62/83/56
f 59/91/57 60/85/57 58/87/57
f 65/92/26 66/93/26 67/94/26
f 60/85/58 65/95/58 58/87/58
f 61/96/59 62/83/59 60/85/59
f 73/97/55 74/77/55 72/80/55
f 74/77/51 68/98/51 72/80/51
f 63/99/60 52/89/60 62/83/60
f 56/70/61 65/95/61 64/100/61
f 80/67/56 69/101/56 85/102/56
f 77/103/57 78/69/57 76/76/57
f 83/104/26 84/105/26 85/106/26
f 78/69/58 83/107/58 76/76/58
f 79/108/59 80/67/59 78/69/59
f 81/109/60 70/110/60 80/67/60
f 74/77/61 83/107/61 82/111/61
f 2/1/1 5/7/1 6/2/1
f 1/4/3 4/6/3 5/7/3
f 4/6/4 7/11/4 8/8/4
f 6/2/5 5/7/5 8/8/5
f 8/8/7 7/11/7 10/12/7
f 8/8/8 11/13/8 12/14/8
f 10/12/10 13/19/10 14/16/10
f 11/13/11 14/16/11 15/17/11
f 13/19/13 16/23/13 17/20/13
f 14/16/14 17/20/14 18/21/14
f 17/20/16 16/23/16 20/24/16
f 17/20/17 21/25/17 22/26/17
f 21/25/19 24/31/19 25/28/19
f 21/25/21 20/24/21 23/30/21
f 6/2/22 48/56/22 49/32/22
f 24/31/23 30/40/23 31/33/23
f 15/17/25 42/57/25 43/36/25
f 26/39/26 49/112/26 48/113/26
f 48/113/26 47/114/26 43/115/26
f 43/115/26 42/116/26 38/117/26
f 38/117/26 37/118/26 33/37/26
f 33/37/26 32/119/26 28/38/26
f 28/38/26 27/120/26 26/39/26
f 26/39/26 48/113/26 43/115/26
f 43/115/26 38/117/26 26/39/26
f 38/117/26 33/37/26 26/39/26
f 23/30/27 29/35/27 30/40/27
f 41/41/28 27/49/28 28/42/28
f 30/40/29 35/50/29 36/44/29
f 36/44/31 28/121/31 32/47/31
f 46/48/32 26/62/32 27/49/32
f 29/35/33 34/46/33 35/50/33
f 12/14/34 43/36/34 47/51/34
f 35/52/35 40/58/35 41/41/35
f 9/9/37 47/51/37 48/56/37
f 18/21/38 38/66/38 42/57/38
f 35/52/39 34/53/39 39/55/39
f 40/58/40 45/63/40 46/48/40
f 25/28/42 33/64/42 37/61/42
f 3/3/43 49/32/43 26/62/43
f 40/58/44 39/55/44 44/60/44
f 31/33/45 32/47/45 33/64/45
f 22/26/47 37/61/47 38/66/47
f 45/63/48 44/60/48 1/4/48
f 46/48/49 45/63/49 2/1/49
f 80/67/50 85/102/50 84/68/50
f 56/70/51 64/100/51 50/71/51
f 53/73/52 55/79/52 54/72/52
f 75/75/53 77/103/53 76/76/53
f 52/74/54 54/72/54 50/71/54
f 55/79/55 57/86/55 56/70/55
f 72/80/54 68/98/54 69/81/54
f 62/83/50 67/90/50 66/84/50
f 57/86/53 59/91/53 58/87/53
f 71/88/52 73/97/52 72/80/52
f 52/89/56 51/122/56 67/90/56
f 59/91/57 61/96/57 60/85/57
f 67/94/26 51/123/26 65/92/26
f 51/123/26 50/124/26 65/92/26
f 50/124/26 64/125/26 65/92/26
f 60/85/58 66/84/58 65/95/58
f 61/96/59 63/99/59 62/83/59
f 73/97/55 75/75/55 74/77/55
f 74/77/51 82/111/51 68/98/51
f 63/99/60 53/126/60 52/89/60
f 56/70/61 58/87/61 65/95/61
f 80/67/56 70/110/56 69/101/56
f 77/103/57 79/108/57 78/69/57
f 85/106/26 69/127/26 83/104/26
f 69/127/26 68/128/26 83/104/26
f 68/128/26 82/129/26 83/104/26
f 78/69/58 84/68/58 83/107/58
f 79/108/59 81/109/59 80/67/59
f 81/109/60 71/130/60 70/110/60
f 74/77/61 76/76/61 83/107/61
f 92/131/62 86/132/62 90/133/62
f 89/134/63 90/133/63 88/135/63
f 88/135/64 86/132/64 87/136/64
f 91/137/65 92/131/65 90/133/65
f 98/138/66 102/139/66 96/140/66
f 93/141/67 94/142/67 92/131/67
f 88/143/68 103/144/68 98/138/68
f 95/145/69 96/140/69 94/142/69
f 101/146/70 102/147/70 103/148/70
f 96/140/71 101/149/71 94/142/71
f 97/150/72 98/138/72 96/140/72
f 99/151/73 88/143/73 98/138/73
f 92/131/74 101/149/74 100/152/74
f 92/131/62 100/152/62 86/132/62
f 89/134/63 91/137/63 90/133/63
f 88/135/64 90/133/64 86/132/64
f 91/137/65 93/141/65 92/131/65
f 98/138/66 103/144/66 102/139/66
f 93/141/67 95/145/67 94/142/67
f 88/143/68 87/153/68 103/144/68
f 95/145/69 97/150/69 96/140/69
f 103/148/70 87/154/70 101/146/70
f 87/154/70 86/155/70 101/146/70
f 86/155/70 100/156/70 101/146/70
f 96/140/71 102/139/71 101/149/71
f 97/150/72 99/151/72 98/138/72
f 99/151/73 89/157/73 88/143/73
f 92/131/74 94/142/74 101/149/74
f 110/158/75 104/159/75 108/160/75
f 107/161/76 108/160/76 106/162/76
f 106/162/77 104/159/77 105/163/77
f 109/164/78 110/158/78 108/160/78
f 116/165/79 120/166/79 114/167/79
f 111/168/80 112/169/80 110/158/80
f 106/170/81 121/171/81 116/165/81
f 113/172/82 114/167/82 112/169/82
f 119/173/83 120/174/83 121/175/83
f 114/167/84 119/176/84 112/169/84
f 115/177/85 116/165/85 114/167/85
f 117/178/86 106/170/86 116/165/86
f 110/158/87 119/176/87 118/179/87
f 110/158/75 118/179/75 104/159/75
f 107/161/76 109/164/76 108/160/76
f 106/162/77 108/160/77 104/159/77
f 109/164/78 111/168/78 110/158/78
f 116/165/79 121/171/79 120/166/79
f 111/168/80 113/172/80 112/169/80
f 106/170/81 105/180/81 121/171/81
f 113/172/82 115/177/82 114/167/82
f 121/175/88 105/181/88 119/173/88
f 105/181/88 104/182/88 119/173/88
f 104/182/88 118/183/88 119/173/88
f 114/167/84 120/166/84 119/176/84
f 115/177/85 117/178/85 116/165/85
f 117/178/86 107/184/86 106/170/86
f 110/158/87 112/169/87 119/176/87
