# Blender v2.93.1 OBJ File: 'worldnode.blend'
# www.blender.org
mtllib worldnode.mtl
o export_Cylinder.002
v 0.000000 0.000000 -0.550000
v 0.000000 0.100000 -0.413319
v 0.275000 0.000000 -0.476314
v 0.206659 0.100000 -0.357944
v 0.476314 0.000000 -0.275000
v 0.357944 0.100000 -0.206659
v 0.550000 0.000000 0.000000
v 0.413319 0.100000 0.000000
v 0.476314 0.000000 0.275000
v 0.357944 0.100000 0.206659
v 0.275000 0.000000 0.476314
v 0.206659 0.100000 0.357944
v -0.000000 0.000000 0.550000
v -0.000000 0.100000 0.413319
v -0.275000 0.000000 0.476314
v -0.206659 0.100000 0.357944
v -0.476314 0.000000 0.275000
v -0.357944 0.100000 0.206659
v -0.550000 0.000000 -0.000000
v -0.413319 0.100000 -0.000000
v -0.476314 0.000000 -0.275000
v -0.357944 0.100000 -0.206659
v -0.275000 0.000000 -0.476314
v -0.206659 0.100000 -0.357944
v 0.250000 0.100000 -0.433013
v 0.000000 0.100000 -0.500000
v 0.433013 0.100000 -0.250000
v 0.500000 0.100000 0.000000
v 0.433013 0.100000 0.250000
v 0.250000 0.100000 0.433013
v -0.000000 0.100000 0.500000
v -0.250000 0.100000 0.433013
v -0.433013 0.100000 0.250000
v -0.500000 0.100000 -0.000000
v -0.433013 0.100000 -0.250000
v -0.250000 0.100000 -0.433013
v 0.185993 0.050000 -0.322150
v 0.000000 0.050000 -0.371987
v 0.322150 0.050000 -0.185993
v 0.371987 0.050000 0.000000
v 0.322150 0.050000 0.185993
v 0.185993 0.050000 0.322150
v -0.000000 0.050000 0.371987
v -0.185993 0.050000 0.322150
v -0.322150 0.050000 0.185993
v -0.371987 0.050000 -0.000000
v -0.322150 0.050000 -0.185993
v -0.185993 0.050000 -0.322150
vt 0.250000 0.051607
vt 0.421813 0.150804
vt 0.421813 0.349196
vt 0.349197 0.421813
vt 0.250000 0.448393
vt 0.150804 0.421813
vt 0.078187 0.349196
vt 0.051607 0.250000
vt 0.078187 0.150804
vt 0.150804 0.078187
vt 0.349196 0.078187
vt 0.448393 0.250000
vt 1.000000 0.500000
vt 0.916667 1.000000
vt 0.916667 0.500000
vt 0.833333 0.500000
vt 0.833333 1.000000
vt 0.750000 0.500000
vt 0.666667 1.000000
vt 0.666667 0.500000
vt 0.583333 0.500000
vt 0.583333 1.000000
vt 0.500000 0.500000
vt 0.500000 1.000000
vt 0.416667 0.500000
vt 0.416667 1.000000
vt 0.333333 0.500000
vt 0.250000 1.000000
vt 0.250000 0.500000
vt 0.166667 1.000000
vt 0.166667 0.500000
vt 0.421813 0.150804
vt 0.349196 0.078187
vt 0.083333 0.500000
vt 0.083333 1.000000
vt 0.000000 0.500000
vt 0.349197 0.421813
vt 0.250000 0.490000
vt 0.250000 0.448393
vt 0.421813 0.349196
vt 0.370000 0.457846
vt 0.448393 0.250000
vt 0.457846 0.370000
vt 0.490000 0.250000
vt 0.457846 0.130000
vt 0.250000 0.051607
vt 0.370000 0.042154
vt 0.150804 0.078187
vt 0.250000 0.010000
vt 0.042154 0.130000
vt 0.130000 0.042154
vt 0.078187 0.150804
vt 0.010000 0.250000
vt 0.078187 0.349196
vt 0.051607 0.250000
vt 0.150804 0.421813
vt 0.042154 0.370000
vt 0.130000 0.457846
vt 1.000000 1.000000
vt 0.750000 1.000000
vt 0.333333 1.000000
vt 0.000000 1.000000
vn 0.0000 1.0000 0.0000
vn 0.0000 0.4472 -0.8944
vn 0.2917 0.8122 -0.5052
vn 0.4472 0.4472 -0.7746
vn 0.7746 0.4472 -0.4472
vn 0.5052 0.8122 -0.2917
vn 0.8944 0.4472 0.0000
vn 0.5052 0.8122 0.2917
vn 0.7746 0.4472 0.4472
vn 0.4472 0.4472 0.7746
vn 0.2917 0.8122 0.5052
vn 0.0000 0.4472 0.8944
vn 0.0000 0.8122 0.5834
vn -0.4472 0.4472 0.7746
vn -0.2917 0.8122 0.5052
vn -0.7746 0.4472 0.4472
vn -0.5834 0.8122 0.0000
vn -0.8944 0.4472 0.0000
vn -0.5052 0.8122 -0.2917
vn -0.7746 0.4472 -0.4472
vn -0.3157 0.9312 -0.1823
vn -0.2402 0.8770 -0.4161
vn -0.1823 0.9312 -0.3157
vn -0.4472 0.4472 -0.7746
vn -0.2917 0.8122 -0.5052
vn -0.1823 0.9312 0.3157
vn 0.0000 0.8122 -0.5834
vn 0.0000 0.9312 0.3645
vn -0.3157 0.9312 0.1823
vn -0.3645 0.9312 0.0000
vn 0.5834 0.8122 0.0000
vn 0.0000 0.9312 -0.3645
vn 0.1823 0.9312 -0.3157
vn -0.5052 0.8122 0.2917
vn 0.3157 0.9312 -0.1823
vn 0.3157 0.9312 0.1823
vn 0.3645 0.9312 0.0000
vn 0.1823 0.9312 0.3157
vn 0.0000 0.8770 0.4805
vn -0.4161 0.8770 0.2402
vn 0.4805 0.8770 0.0000
vn 0.0000 0.8770 -0.4805
vn -0.4805 0.8770 0.0000
vn 0.4161 0.8770 0.2402
vn 0.2402 0.8770 -0.4161
vn -0.4161 0.8770 -0.2402
vn 0.2402 0.8770 0.4161
vn -0.2402 0.8770 0.4161
vn 0.4161 0.8770 -0.2402
usemtl magic
s off
f 43/1/1 41/2/1 39/3/1
f 39/3/1 37/4/1 38/5/1
f 38/5/1 48/6/1 47/7/1
f 47/7/1 46/8/1 45/9/1
f 45/9/1 44/10/1 47/7/1
f 44/10/1 43/1/1 47/7/1
f 43/1/1 42/11/1 41/2/1
f 41/2/1 40/12/1 39/3/1
f 39/3/1 38/5/1 43/1/1
f 38/5/1 47/7/1 43/1/1
usemtl stone
s 1
f 1/13/2 25/14/3 3/15/4
f 25/14/3 5/16/5 3/15/4
f 27/17/6 7/18/7 5/16/5
f 7/18/7 29/19/8 9/20/9
f 29/19/8 11/21/10 9/20/9
f 30/22/11 13/23/12 11/21/10
f 31/24/13 15/25/14 13/23/12
f 32/26/15 17/27/16 15/25/14
f 17/27/16 34/28/17 19/29/18
f 19/29/18 35/30/19 21/31/20
f 10/32/21 42/11/22 12/33/23
f 35/30/19 23/34/24 21/31/20
f 36/35/25 1/36/2 23/34/24
f 4/37/26 26/38/27 2/39/28
f 6/40/29 25/41/3 4/37/26
f 8/42/30 27/43/6 6/40/29
f 10/32/21 28/44/31 8/42/30
f 12/33/23 29/45/8 10/32/21
f 14/46/32 30/47/11 12/33/23
f 16/48/33 31/49/13 14/46/32
f 16/48/33 33/50/34 32/51/15
f 18/52/35 34/53/17 33/50/34
f 22/54/36 34/53/17 20/55/37
f 24/56/38 35/57/19 22/54/36
f 2/39/28 36/58/25 24/56/38
f 24/56/38 38/5/39 2/39/28
f 4/37/26 39/3/40 6/40/29
f 18/52/35 46/8/41 20/55/37
f 12/33/23 43/1/42 14/46/32
f 6/40/29 40/12/43 8/42/30
f 20/55/37 47/7/44 22/54/36
f 16/48/33 43/1/42 44/10/45
f 8/42/30 41/2/46 10/32/21
f 22/54/36 48/6/47 24/56/38
f 4/37/26 38/5/39 37/4/48
f 16/48/33 45/9/49 18/52/35
f 1/13/2 26/59/27 25/14/3
f 25/14/3 27/17/6 5/16/5
f 27/17/6 28/60/31 7/18/7
f 7/18/7 28/60/31 29/19/8
f 29/19/8 30/22/11 11/21/10
f 30/22/11 31/24/13 13/23/12
f 31/24/13 32/26/15 15/25/14
f 32/26/15 33/61/34 17/27/16
f 17/27/16 33/61/34 34/28/17
f 19/29/18 34/28/17 35/30/19
f 10/32/21 41/2/46 42/11/22
f 35/30/19 36/35/25 23/34/24
f 36/35/25 26/62/27 1/36/2
f 4/37/26 25/41/3 26/38/27
f 6/40/29 27/43/6 25/41/3
f 8/42/30 28/44/31 27/43/6
f 10/32/21 29/45/8 28/44/31
f 12/33/23 30/47/11 29/45/8
f 14/46/32 31/49/13 30/47/11
f 16/48/33 32/51/15 31/49/13
f 16/48/33 18/52/35 33/50/34
f 18/52/35 20/55/37 34/53/17
f 22/54/36 35/57/19 34/53/17
f 24/56/38 36/58/25 35/57/19
f 2/39/28 26/38/27 36/58/25
f 24/56/38 48/6/47 38/5/39
f 4/37/26 37/4/48 39/3/40
f 18/52/35 45/9/49 46/8/41
f 12/33/23 42/11/22 43/1/42
f 6/40/29 39/3/40 40/12/43
f 20/55/37 46/8/41 47/7/44
f 16/48/33 14/46/32 43/1/42
f 8/42/30 40/12/43 41/2/46
f 22/54/36 47/7/44 48/6/47
f 4/37/26 2/39/28 38/5/39
f 16/48/33 44/10/45 45/9/49
