<?xml version="1.0" encoding="UTF-8" standalone="no"?>
<svg xmlns="http://www.w3.org/2000/svg" xmlns:xlink="http://www.w3.org/1999/xlink" contentScriptType="application/ecmascript" contentStyleType="text/css" height="150px" preserveAspectRatio="none" style="width:711px;height:150px;background:#FFFFFF;" version="1.1" viewBox="0 0 711 150" width="711px" zoomAndPan="magnify" data-cm_cookies_allowed="true"><defs><filter height="300%" id="fyk62ys0u333k" width="300%" x="-1" y="-1"><feGaussianBlur result="blurOut" stdDeviation="2.0"/><feColorMatrix in="blurOut" result="blurOut2" type="matrix" values="0 0 0 0 0 0 0 0 0 0 0 0 0 0 0 0 0 0 .4 0"/><feOffset dx="4.0" dy="4.0" in="blurOut2" result="blurOut3"/><feBlend in="SourceGraphic" in2="blurOut3" mode="normal"/></filter></defs><g><!--MD5=[d365afd21373f8574c4530ba8511f850]
cluster ObjLoader--><polygon fill="#FFFFFF" filter="url(#fyk62ys0u333k)" points="16,6,104,6,111,28.2969,694,28.2969,694,143,16,143,16,6" style="stroke:#000000;stroke-width:1.5;"/><line style="stroke:#000000;stroke-width:1.5;" x1="16" x2="111" y1="28.2969" y2="28.2969"/><text fill="#000000" font-family="sans-serif" font-size="14" font-weight="bold" lengthAdjust="spacing" textLength="82" x="20" y="20.9951">ObjLoader</text><!--MD5=[07198b8ad8a9ebe43f37e2fa1d595027]
class ObjLoader._--><rect codeLine="1" fill="#FEFECE" filter="url(#fyk62ys0u333k)" height="73.6094" id="ObjLoader._" style="stroke:#A80036;stroke-width:1.5;" width="343" x="334.5" y="47"/><ellipse cx="498.75" cy="63" fill="#ADD1B2" rx="11" ry="11" style="stroke:#A80036;stroke-width:1.0;"/><path d="M501.0938,58.6719 C500.1563,58.2344 499.5625,58.0938 498.6875,58.0938 C496.0625,58.0938 494.0625,60.1719 494.0625,62.8906 L494.0625,64.0156 C494.0625,66.5938 496.1719,68.4844 499.0625,68.4844 C500.2813,68.4844 501.4375,68.1875 502.1875,67.6406 C502.7656,67.2344 503.0938,66.7813 503.0938,66.3906 C503.0938,65.9375 502.7031,65.5469 502.2344,65.5469 C502.0156,65.5469 501.8125,65.625 501.625,65.8125 C501.1719,66.2969 501.1719,66.2969 500.9844,66.3906 C500.5625,66.6563 499.875,66.7813 499.1094,66.7813 C497.0625,66.7813 495.7656,65.6875 495.7656,63.9844 L495.7656,62.8906 C495.7656,61.1094 497.0156,59.7969 498.75,59.7969 C499.3281,59.7969 499.9375,59.9531 500.4063,60.2031 C500.8906,60.4844 501.0625,60.7031 501.1563,61.1094 C501.2188,61.5156 501.25,61.6406 501.3906,61.7656 C501.5313,61.9063 501.7656,62.0156 501.9844,62.0156 C502.25,62.0156 502.5156,61.875 502.6875,61.6563 C502.7969,61.5 502.8281,61.3125 502.8281,60.8906 L502.8281,59.4688 C502.8281,59.0313 502.8125,58.9063 502.7188,58.75 C502.5625,58.4844 502.2813,58.3438 501.9844,58.3438 C501.6875,58.3438 501.4844,58.4375 501.2656,58.75 L501.0938,58.6719 Z " fill="#000000"/><text fill="#000000" font-family="sans-serif" font-size="12" lengthAdjust="spacing" textLength="6" x="519.25" y="67.1543">_</text><line style="stroke:#A80036;stroke-width:1.5;" x1="335.5" x2="676.5" y1="79" y2="79"/><line style="stroke:#A80036;stroke-width:1.5;" x1="335.5" x2="676.5" y1="87" y2="87"/><text fill="#000000" font-family="sans-serif" font-size="11" lengthAdjust="spacing" textLength="270" x="340.5" y="101.2104">async ObjLoader.Object loadObjFile(string path)</text><text fill="#000000" font-family="sans-serif" font-size="11" lengthAdjust="spacing" textLength="331" x="340.5" y="114.0151">ObjLoader.Object loadObjFromString(string objFileContent)</text><!--MD5=[3d6191f61332d00e2d76bfd6897cbde2]
class ObjLoader.Object--><rect codeLine="5" fill="#FEFECE" filter="url(#fyk62ys0u333k)" height="86.4141" id="ObjLoader.Object" style="stroke:#A80036;stroke-width:1.5;" width="267" x="32.5" y="41"/><ellipse cx="141.75" cy="57" fill="#ADD1B2" rx="11" ry="11" style="stroke:#A80036;stroke-width:1.0;"/><path d="M144.0938,52.6719 C143.1563,52.2344 142.5625,52.0938 141.6875,52.0938 C139.0625,52.0938 137.0625,54.1719 137.0625,56.8906 L137.0625,58.0156 C137.0625,60.5938 139.1719,62.4844 142.0625,62.4844 C143.2813,62.4844 144.4375,62.1875 145.1875,61.6406 C145.7656,61.2344 146.0938,60.7813 146.0938,60.3906 C146.0938,59.9375 145.7031,59.5469 145.2344,59.5469 C145.0156,59.5469 144.8125,59.625 144.625,59.8125 C144.1719,60.2969 144.1719,60.2969 143.9844,60.3906 C143.5625,60.6563 142.875,60.7813 142.1094,60.7813 C140.0625,60.7813 138.7656,59.6875 138.7656,57.9844 L138.7656,56.8906 C138.7656,55.1094 140.0156,53.7969 141.75,53.7969 C142.3281,53.7969 142.9375,53.9531 143.4063,54.2031 C143.8906,54.4844 144.0625,54.7031 144.1563,55.1094 C144.2188,55.5156 144.25,55.6406 144.3906,55.7656 C144.5313,55.9063 144.7656,56.0156 144.9844,56.0156 C145.25,56.0156 145.5156,55.875 145.6875,55.6563 C145.7969,55.5 145.8281,55.3125 145.8281,54.8906 L145.8281,53.4688 C145.8281,53.0313 145.8125,52.9063 145.7188,52.75 C145.5625,52.4844 145.2813,52.3438 144.9844,52.3438 C144.6875,52.3438 144.4844,52.4375 144.2656,52.75 L144.0938,52.6719 Z " fill="#000000"/><text fill="#000000" font-family="sans-serif" font-size="12" lengthAdjust="spacing" textLength="40" x="162.25" y="61.1543">Object</text><line style="stroke:#A80036;stroke-width:1.5;" x1="33.5" x2="298.5" y1="73" y2="73"/><line style="stroke:#A80036;stroke-width:1.5;" x1="33.5" x2="298.5" y1="81" y2="81"/><text fill="#000000" font-family="sans-serif" font-size="11" lengthAdjust="spacing" textLength="154" x="38.5" y="95.2104">Object generateTriangles()</text><text fill="#000000" font-family="sans-serif" font-size="11" lengthAdjust="spacing" textLength="227" x="38.5" y="108.0151">Object generateTrianglesFromMaterial()</text><text fill="#000000" font-family="sans-serif" font-size="11" lengthAdjust="spacing" textLength="255" x="38.5" y="120.8198">Object generateQuadrangleFromId(string fId)</text><!--MD5=[a6ebba0c30a3429567fd3b1ca54ccac3]
@startuml
class ObjLoader._ {
   async ObjLoader.Object loadObjFile(string path)
   ObjLoader.Object loadObjFromString(string objFileContent) 
}
class ObjLoader.Object {
   Object generateTriangles()
   Object generateTrianglesFromMaterial()
   Object generateQuadrangleFromId(string fId)
}
@enduml

PlantUML version 1.2021.17beta9(Unknown compile time)
(GPL source distribution)
Java Runtime: Java(TM) SE Runtime Environment
JVM: Java HotSpot(TM) 64-Bit Server VM
Default Encoding: UTF-8
Language: en
Country: US
--></g><script xmlns=""/></svg>