<?xml version="1.0" encoding="UTF-8" standalone="no"?>
<svg xmlns="http://www.w3.org/2000/svg" xmlns:xlink="http://www.w3.org/1999/xlink" contentScriptType="application/ecmascript" contentStyleType="text/css" height="292px" preserveAspectRatio="none" style="width:1504px;height:292px;background:#FFFFFF;" version="1.1" viewBox="0 0 1504 292" width="1504px" zoomAndPan="magnify" data-cm_cookies_allowed="true"><defs><filter height="300%" id="fzaq3lp2txuuy" width="300%" x="-1" y="-1"><feGaussianBlur result="blurOut" stdDeviation="2.0"/><feColorMatrix in="blurOut" result="blurOut2" type="matrix" values="0 0 0 0 0 0 0 0 0 0 0 0 0 0 0 0 0 0 .4 0"/><feOffset dx="4.0" dy="4.0" in="blurOut2" result="blurOut3"/><feBlend in="SourceGraphic" in2="blurOut3" mode="normal"/></filter></defs><g><!--MD5=[1b1562314ef50edf921bad0cd204186a]
class World--><rect codeLine="1" fill="#FEFECE" filter="url(#fzaq3lp2txuuy)" height="124.8281" id="World" style="stroke:#A80036;stroke-width:1.5;" width="334" x="7" y="7"/><ellipse cx="151.75" cy="23" fill="#ADD1B2" rx="11" ry="11" style="stroke:#A80036;stroke-width:1.0;"/><path d="M154.0938,18.6719 C153.1563,18.2344 152.5625,18.0938 151.6875,18.0938 C149.0625,18.0938 147.0625,20.1719 147.0625,22.8906 L147.0625,24.0156 C147.0625,26.5938 149.1719,28.4844 152.0625,28.4844 C153.2813,28.4844 154.4375,28.1875 155.1875,27.6406 C155.7656,27.2344 156.0938,26.7813 156.0938,26.3906 C156.0938,25.9375 155.7031,25.5469 155.2344,25.5469 C155.0156,25.5469 154.8125,25.625 154.625,25.8125 C154.1719,26.2969 154.1719,26.2969 153.9844,26.3906 C153.5625,26.6563 152.875,26.7813 152.1094,26.7813 C150.0625,26.7813 148.7656,25.6875 148.7656,23.9844 L148.7656,22.8906 C148.7656,21.1094 150.0156,19.7969 151.75,19.7969 C152.3281,19.7969 152.9375,19.9531 153.4063,20.2031 C153.8906,20.4844 154.0625,20.7031 154.1563,21.1094 C154.2188,21.5156 154.25,21.6406 154.3906,21.7656 C154.5313,21.9063 154.7656,22.0156 154.9844,22.0156 C155.25,22.0156 155.5156,21.875 155.6875,21.6563 C155.7969,21.5 155.8281,21.3125 155.8281,20.8906 L155.8281,19.4688 C155.8281,19.0313 155.8125,18.9063 155.7188,18.75 C155.5625,18.4844 155.2813,18.3438 154.9844,18.3438 C154.6875,18.3438 154.4844,18.4375 154.2656,18.75 L154.0938,18.6719 Z " fill="#000000"/><text fill="#000000" font-family="sans-serif" font-size="12" lengthAdjust="spacing" textLength="36" x="172.25" y="27.1543">World</text><line style="stroke:#A80036;stroke-width:1.5;" x1="8" x2="340" y1="39" y2="39"/><line style="stroke:#A80036;stroke-width:1.5;" x1="8" x2="340" y1="47" y2="47"/><text fill="#000000" font-family="sans-serif" font-size="11" lengthAdjust="spacing" textLength="228" x="13" y="61.2104">constructor(WebGLRenderingContext gl)</text><text fill="#000000" font-family="sans-serif" font-size="11" lengthAdjust="spacing" textLength="171" x="13" y="74.0151">void addStructure(Structure s)</text><text fill="#000000" font-family="sans-serif" font-size="11" lengthAdjust="spacing" textLength="195" x="13" y="86.8198">void removeStructure(Structure s)</text><text fill="#000000" font-family="sans-serif" font-size="11" lengthAdjust="spacing" textLength="322" x="13" y="99.6245">void setGlobalConfiguration(string configurationId, value)</text><text fill="#000000" font-family="sans-serif" font-size="11" lengthAdjust="spacing" textLength="232" x="13" y="112.4292">void setCamera(Float32Array[16] matrix)</text><text fill="#000000" font-family="sans-serif" font-size="11" lengthAdjust="spacing" textLength="63" x="13" y="125.2339">void draw()</text><!--MD5=[6b13f1b330d33795af281e5c1dfe1e98]
class Resource--><rect codeLine="10" fill="#FEFECE" filter="url(#fzaq3lp2txuuy)" height="73.6094" id="Resource" style="stroke:#A80036;stroke-width:1.5;" width="383" x="376.5" y="32.5"/><ellipse cx="536.25" cy="48.5" fill="#B4A7E5" rx="11" ry="11" style="stroke:#A80036;stroke-width:1.0;"/><path d="M537.2031,45.2813 L538.9219,45.2813 C539.3125,45.2813 539.5,45.25 539.625,45.1719 C539.8906,45.0156 540.0313,44.7344 540.0313,44.4375 C540.0313,44.1719 539.9219,43.9063 539.6875,43.7344 C539.5156,43.625 539.375,43.5938 538.9219,43.5938 L533.7813,43.5938 C533.3438,43.5938 533.2188,43.6094 533.0625,43.7031 C532.8125,43.8594 532.6563,44.1563 532.6563,44.4375 C532.6563,44.7188 532.7969,44.9688 533.0156,45.1406 C533.1719,45.25 533.3594,45.2813 533.7813,45.2813 L535.5,45.2813 L535.5,51.7969 L533.7813,51.7969 C533.3438,51.7969 533.2188,51.8125 533.0625,51.9219 C532.8125,52.0781 532.6563,52.3594 532.6563,52.6563 C532.6563,52.9063 532.7969,53.1719 533.0156,53.3281 C533.1719,53.4531 533.375,53.5 533.7813,53.5 L538.9219,53.5 C539.6719,53.5 540.0313,53.2188 540.0313,52.6563 C540.0313,52.375 539.9219,52.125 539.6875,51.9531 C539.5156,51.8281 539.375,51.7969 538.9219,51.7969 L537.2031,51.7969 L537.2031,45.2813 Z " fill="#000000"/><text fill="#000000" font-family="sans-serif" font-size="12" font-style="italic" lengthAdjust="spacing" textLength="55" x="556.75" y="52.6543">Resource</text><line style="stroke:#A80036;stroke-width:1.5;" x1="377.5" x2="758.5" y1="64.5" y2="64.5"/><line style="stroke:#A80036;stroke-width:1.5;" x1="377.5" x2="758.5" y1="72.5" y2="72.5"/><text fill="#000000" font-family="sans-serif" font-size="11" lengthAdjust="spacing" textLength="248" x="382.5" y="86.7104">async void init(WebGLRenderingContext gl)</text><text fill="#000000" font-family="sans-serif" font-size="11" lengthAdjust="spacing" textLength="371" x="382.5" y="99.5151">void draw(Float32Array[16] mObject, Object globalConfigurations)</text><!--MD5=[3915787db80ab162e3259f8f86339844]
class Structure--><rect codeLine="15" fill="#FEFECE" filter="url(#fzaq3lp2txuuy)" height="99.2188" id="Structure" style="stroke:#A80036;stroke-width:1.5;" width="283" x="1130.5" y="20"/><ellipse cx="1238.75" cy="36" fill="#B4A7E5" rx="11" ry="11" style="stroke:#A80036;stroke-width:1.0;"/><path d="M1239.7031,32.7813 L1241.4219,32.7813 C1241.8125,32.7813 1242,32.75 1242.125,32.6719 C1242.3906,32.5156 1242.5313,32.2344 1242.5313,31.9375 C1242.5313,31.6719 1242.4219,31.4063 1242.1875,31.2344 C1242.0156,31.125 1241.875,31.0938 1241.4219,31.0938 L1236.2813,31.0938 C1235.8438,31.0938 1235.7188,31.1094 1235.5625,31.2031 C1235.3125,31.3594 1235.1563,31.6563 1235.1563,31.9375 C1235.1563,32.2188 1235.2969,32.4688 1235.5156,32.6406 C1235.6719,32.75 1235.8594,32.7813 1236.2813,32.7813 L1238,32.7813 L1238,39.2969 L1236.2813,39.2969 C1235.8438,39.2969 1235.7188,39.3125 1235.5625,39.4219 C1235.3125,39.5781 1235.1563,39.8594 1235.1563,40.1563 C1235.1563,40.4063 1235.2969,40.6719 1235.5156,40.8281 C1235.6719,40.9531 1235.875,41 1236.2813,41 L1241.4219,41 C1242.1719,41 1242.5313,40.7188 1242.5313,40.1563 C1242.5313,39.875 1242.4219,39.625 1242.1875,39.4531 C1242.0156,39.3281 1241.875,39.2969 1241.4219,39.2969 L1239.7031,39.2969 L1239.7031,32.7813 Z " fill="#000000"/><text fill="#000000" font-family="sans-serif" font-size="12" font-style="italic" lengthAdjust="spacing" textLength="58" x="1259.25" y="40.1543">Structure</text><line style="stroke:#A80036;stroke-width:1.5;" x1="1131.5" x2="1412.5" y1="52" y2="52"/><line style="stroke:#A80036;stroke-width:1.5;" x1="1131.5" x2="1412.5" y1="60" y2="60"/><text fill="#000000" font-family="sans-serif" font-size="11" lengthAdjust="spacing" textLength="105" x="1136.5" y="74.2104">boolean isVisible()</text><text fill="#000000" font-family="sans-serif" font-size="11" lengthAdjust="spacing" textLength="171" x="1136.5" y="87.0151">Structure[] getSubStructures()</text><text fill="#000000" font-family="sans-serif" font-size="11" lengthAdjust="spacing" textLength="151" x="1136.5" y="99.8198">Resource[] getRecources()</text><text fill="#000000" font-family="sans-serif" font-size="11" lengthAdjust="spacing" textLength="271" x="1136.5" y="112.6245">Float32Array[16]/undefined getTransformation()</text><!--MD5=[67a3c3723659453ae690191f1a1fad3f]
class SimpleStructure--><rect codeLine="21" fill="#FEFECE" filter="url(#fzaq3lp2txuuy)" height="86.4141" id="SimpleStructure" style="stroke:#A80036;stroke-width:1.5;" width="437" x="1053.5" y="192"/><ellipse cx="1219.75" cy="208" fill="#ADD1B2" rx="11" ry="11" style="stroke:#A80036;stroke-width:1.0;"/><path d="M1222.0938,203.6719 C1221.1563,203.2344 1220.5625,203.0938 1219.6875,203.0938 C1217.0625,203.0938 1215.0625,205.1719 1215.0625,207.8906 L1215.0625,209.0156 C1215.0625,211.5938 1217.1719,213.4844 1220.0625,213.4844 C1221.2813,213.4844 1222.4375,213.1875 1223.1875,212.6406 C1223.7656,212.2344 1224.0938,211.7813 1224.0938,211.3906 C1224.0938,210.9375 1223.7031,210.5469 1223.2344,210.5469 C1223.0156,210.5469 1222.8125,210.625 1222.625,210.8125 C1222.1719,211.2969 1222.1719,211.2969 1221.9844,211.3906 C1221.5625,211.6563 1220.875,211.7813 1220.1094,211.7813 C1218.0625,211.7813 1216.7656,210.6875 1216.7656,208.9844 L1216.7656,207.8906 C1216.7656,206.1094 1218.0156,204.7969 1219.75,204.7969 C1220.3281,204.7969 1220.9375,204.9531 1221.4063,205.2031 C1221.8906,205.4844 1222.0625,205.7031 1222.1563,206.1094 C1222.2188,206.5156 1222.25,206.6406 1222.3906,206.7656 C1222.5313,206.9063 1222.7656,207.0156 1222.9844,207.0156 C1223.25,207.0156 1223.5156,206.875 1223.6875,206.6563 C1223.7969,206.5 1223.8281,206.3125 1223.8281,205.8906 L1223.8281,204.4688 C1223.8281,204.0313 1223.8125,203.9063 1223.7188,203.75 C1223.5625,203.4844 1223.2813,203.3438 1222.9844,203.3438 C1222.6875,203.3438 1222.4844,203.4375 1222.2656,203.75 L1222.0938,203.6719 Z " fill="#000000"/><text fill="#000000" font-family="sans-serif" font-size="12" lengthAdjust="spacing" textLength="96" x="1240.25" y="212.1543">SimpleStructure</text><line style="stroke:#A80036;stroke-width:1.5;" x1="1054.5" x2="1489.5" y1="224" y2="224"/><line style="stroke:#A80036;stroke-width:1.5;" x1="1054.5" x2="1489.5" y1="232" y2="232"/><text fill="#000000" font-family="sans-serif" font-size="11" lengthAdjust="spacing" textLength="425" x="1059.5" y="246.2104">constructor(Resource resource, Float32Array[16]/undefined transformation)</text><text fill="#000000" font-family="sans-serif" font-size="11" lengthAdjust="spacing" textLength="186" x="1059.5" y="259.0151">setResource(Resource resource)</text><text fill="#000000" font-family="sans-serif" font-size="11" lengthAdjust="spacing" textLength="352" x="1059.5" y="271.8198">setTransformation(Float32Array[16]/undefined transformation)</text><!--MD5=[69b78f540342a90f1a2ccb9c0211295c]
class TexturedTrianglesResource--><rect codeLine="26" fill="#FEFECE" filter="url(#fzaq3lp2txuuy)" height="60.8047" id="TexturedTrianglesResource" style="stroke:#A80036;stroke-width:1.5;" width="329" x="47.5" y="204.5"/><ellipse cx="124.75" cy="220.5" fill="#ADD1B2" rx="11" ry="11" style="stroke:#A80036;stroke-width:1.0;"/><path d="M127.0938,216.1719 C126.1563,215.7344 125.5625,215.5938 124.6875,215.5938 C122.0625,215.5938 120.0625,217.6719 120.0625,220.3906 L120.0625,221.5156 C120.0625,224.0938 122.1719,225.9844 125.0625,225.9844 C126.2813,225.9844 127.4375,225.6875 128.1875,225.1406 C128.7656,224.7344 129.0938,224.2813 129.0938,223.8906 C129.0938,223.4375 128.7031,223.0469 128.2344,223.0469 C128.0156,223.0469 127.8125,223.125 127.625,223.3125 C127.1719,223.7969 127.1719,223.7969 126.9844,223.8906 C126.5625,224.1563 125.875,224.2813 125.1094,224.2813 C123.0625,224.2813 121.7656,223.1875 121.7656,221.4844 L121.7656,220.3906 C121.7656,218.6094 123.0156,217.2969 124.75,217.2969 C125.3281,217.2969 125.9375,217.4531 126.4063,217.7031 C126.8906,217.9844 127.0625,218.2031 127.1563,218.6094 C127.2188,219.0156 127.25,219.1406 127.3906,219.2656 C127.5313,219.4063 127.7656,219.5156 127.9844,219.5156 C128.25,219.5156 128.5156,219.375 128.6875,219.1563 C128.7969,219 128.8281,218.8125 128.8281,218.3906 L128.8281,216.9688 C128.8281,216.5313 128.8125,216.4063 128.7188,216.25 C128.5625,215.9844 128.2813,215.8438 127.9844,215.8438 C127.6875,215.8438 127.4844,215.9375 127.2656,216.25 L127.0938,216.1719 Z " fill="#000000"/><text fill="#000000" font-family="sans-serif" font-size="12" lengthAdjust="spacing" textLength="166" x="145.25" y="224.6543">TexturedTrianglesResource</text><line style="stroke:#A80036;stroke-width:1.5;" x1="48.5" x2="375.5" y1="236.5" y2="236.5"/><line style="stroke:#A80036;stroke-width:1.5;" x1="48.5" x2="375.5" y1="244.5" y2="244.5"/><text fill="#000000" font-family="sans-serif" font-size="11" lengthAdjust="spacing" textLength="317" x="53.5" y="258.7104">constructor(Object triangles,HTMLImageElement image)</text><!--MD5=[b469d09f1becea3254a695b286c6edac]
class ShaderTrianglesResource--><rect codeLine="29" fill="#FEFECE" filter="url(#fzaq3lp2txuuy)" height="60.8047" id="ShaderTrianglesResource" style="stroke:#A80036;stroke-width:1.5;" width="313" x="411.5" y="204.5"/><ellipse cx="486.25" cy="220.5" fill="#ADD1B2" rx="11" ry="11" style="stroke:#A80036;stroke-width:1.0;"/><path d="M488.5938,216.1719 C487.6563,215.7344 487.0625,215.5938 486.1875,215.5938 C483.5625,215.5938 481.5625,217.6719 481.5625,220.3906 L481.5625,221.5156 C481.5625,224.0938 483.6719,225.9844 486.5625,225.9844 C487.7813,225.9844 488.9375,225.6875 489.6875,225.1406 C490.2656,224.7344 490.5938,224.2813 490.5938,223.8906 C490.5938,223.4375 490.2031,223.0469 489.7344,223.0469 C489.5156,223.0469 489.3125,223.125 489.125,223.3125 C488.6719,223.7969 488.6719,223.7969 488.4844,223.8906 C488.0625,224.1563 487.375,224.2813 486.6094,224.2813 C484.5625,224.2813 483.2656,223.1875 483.2656,221.4844 L483.2656,220.3906 C483.2656,218.6094 484.5156,217.2969 486.25,217.2969 C486.8281,217.2969 487.4375,217.4531 487.9063,217.7031 C488.3906,217.9844 488.5625,218.2031 488.6563,218.6094 C488.7188,219.0156 488.75,219.1406 488.8906,219.2656 C489.0313,219.4063 489.2656,219.5156 489.4844,219.5156 C489.75,219.5156 490.0156,219.375 490.1875,219.1563 C490.2969,219 490.3281,218.8125 490.3281,218.3906 L490.3281,216.9688 C490.3281,216.5313 490.3125,216.4063 490.2188,216.25 C490.0625,215.9844 489.7813,215.8438 489.4844,215.8438 C489.1875,215.8438 488.9844,215.9375 488.7656,216.25 L488.5938,216.1719 Z " fill="#000000"/><text fill="#000000" font-family="sans-serif" font-size="12" lengthAdjust="spacing" textLength="155" x="506.75" y="224.6543">ShaderTrianglesResource</text><line style="stroke:#A80036;stroke-width:1.5;" x1="412.5" x2="723.5" y1="236.5" y2="236.5"/><line style="stroke:#A80036;stroke-width:1.5;" x1="412.5" x2="723.5" y1="244.5" y2="244.5"/><text fill="#000000" font-family="sans-serif" font-size="11" lengthAdjust="spacing" textLength="301" x="417.5" y="258.7104">constructor(Object triangles,WebGLProgram program)</text><!--MD5=[03943f41a989d2c58cefb990bb984362]
class ShadersTrianglesResource--><rect codeLine="32" fill="#FEFECE" filter="url(#fzaq3lp2txuuy)" height="60.8047" id="ShadersTrianglesResource" style="stroke:#A80036;stroke-width:1.5;" width="258" x="760" y="204.5"/><ellipse cx="803.8" cy="220.5" fill="#ADD1B2" rx="11" ry="11" style="stroke:#A80036;stroke-width:1.0;"/><path d="M806.1438,216.1719 C805.2063,215.7344 804.6125,215.5938 803.7375,215.5938 C801.1125,215.5938 799.1125,217.6719 799.1125,220.3906 L799.1125,221.5156 C799.1125,224.0938 801.2219,225.9844 804.1125,225.9844 C805.3313,225.9844 806.4875,225.6875 807.2375,225.1406 C807.8156,224.7344 808.1438,224.2813 808.1438,223.8906 C808.1438,223.4375 807.7531,223.0469 807.2844,223.0469 C807.0656,223.0469 806.8625,223.125 806.675,223.3125 C806.2219,223.7969 806.2219,223.7969 806.0344,223.8906 C805.6125,224.1563 804.925,224.2813 804.1594,224.2813 C802.1125,224.2813 800.8156,223.1875 800.8156,221.4844 L800.8156,220.3906 C800.8156,218.6094 802.0656,217.2969 803.8,217.2969 C804.3781,217.2969 804.9875,217.4531 805.4563,217.7031 C805.9406,217.9844 806.1125,218.2031 806.2063,218.6094 C806.2688,219.0156 806.3,219.1406 806.4406,219.2656 C806.5813,219.4063 806.8156,219.5156 807.0344,219.5156 C807.3,219.5156 807.5656,219.375 807.7375,219.1563 C807.8469,219 807.8781,218.8125 807.8781,218.3906 L807.8781,216.9688 C807.8781,216.5313 807.8625,216.4063 807.7688,216.25 C807.6125,215.9844 807.3313,215.8438 807.0344,215.8438 C806.7375,215.8438 806.5344,215.9375 806.3156,216.25 L806.1438,216.1719 Z " fill="#000000"/><text fill="#000000" font-family="sans-serif" font-size="12" lengthAdjust="spacing" textLength="162" x="824.2" y="224.6543">ShadersTrianglesResource</text><line style="stroke:#A80036;stroke-width:1.5;" x1="761" x2="1017" y1="236.5" y2="236.5"/><line style="stroke:#A80036;stroke-width:1.5;" x1="761" x2="1017" y1="244.5" y2="244.5"/><text fill="#000000" font-family="sans-serif" font-size="11" lengthAdjust="spacing" textLength="246" x="766" y="258.7104">constructor(ShaderTrianglesResource[] res)</text><!--MD5=[a8374e5ee3b184c6653cc0cd8f529f06]
reverse link Structure to SimpleStructure--><path d="M1272,139.163 C1272,157.084 1272,175.866 1272,191.9428 " fill="none" id="Structure-backto-SimpleStructure" style="stroke:#A80036;stroke-width:1.0;stroke-dasharray:7.0,7.0;"/><polygon fill="none" points="1265,139.113,1272,119.113,1279,139.113,1265,139.113" style="stroke:#A80036;stroke-width:1.0;"/><!--MD5=[a7718df0e16a3f99e8a6c8b4a037c508]
reverse link Resource to TexturedTrianglesResource--><path d="M471.216,114.95 C409.311,143.381 330.724,179.4735 276.394,204.4256 " fill="none" id="Resource-backto-TexturedTrianglesResource" style="stroke:#A80036;stroke-width:1.0;stroke-dasharray:7.0,7.0;"/><polygon fill="none" points="468.337,108.569,489.434,106.583,474.18,121.292,468.337,108.569" style="stroke:#A80036;stroke-width:1.0;"/><!--MD5=[1f8ae3c5410afdd7fcb0e6b8ec00faab]
reverse link Resource to ShaderTrianglesResource--><path d="M568,127.046 C568,153.059 568,182.8461 568,204.3677 " fill="none" id="Resource-backto-ShaderTrianglesResource" style="stroke:#A80036;stroke-width:1.0;stroke-dasharray:7.0,7.0;"/><polygon fill="none" points="561,126.786,568,106.786,575,126.786,561,126.786" style="stroke:#A80036;stroke-width:1.0;"/><!--MD5=[04ec4abea69e165c0756e918c81afdac]
reverse link Resource to ShadersTrianglesResource--><path d="M656.713,115.685 C712.305,144.001 782.369,179.6882 830.937,204.4256 " fill="none" id="Resource-backto-ShadersTrianglesResource" style="stroke:#A80036;stroke-width:1.0;stroke-dasharray:7.0,7.0;"/><polygon fill="none" points="653.487,121.898,638.842,106.583,659.841,109.423,653.487,121.898" style="stroke:#A80036;stroke-width:1.0;"/><!--MD5=[e0e7fe3d7c49d7bbe95bb51cdc7de793]
@startuml
class World {
   constructor(WebGLRenderingContext gl)
   void addStructure(Structure s)
   void removeStructure(Structure s)
   void setGlobalConfiguration(string configurationId, value)
   void setCamera(Float32Array[16] matrix)
   void draw()
}

interface Resource {
   async void init(WebGLRenderingContext gl)
   void draw(Float32Array[16] mObject, Object globalConfigurations)
}

interface Structure {
   boolean isVisible()
   Structure[] getSubStructures()
   Resource[] getRecources()
   Float32Array[16]/undefined getTransformation()
}
class SimpleStructure implements Structure {
   constructor(Resource resource, Float32Array[16]/undefined transformation)
   setResource(Resource resource)
   setTransformation(Float32Array[16]/undefined transformation)
}
class TexturedTrianglesResource implements Resource {
   constructor(Object triangles,HTMLImageElement image)
}
class ShaderTrianglesResource implements Resource {
   constructor(Object triangles,WebGLProgram program)
}
class ShadersTrianglesResource implements Resource {
   constructor(ShaderTrianglesResource[] res)
}
@enduml

PlantUML version 1.2021.17beta9(Unknown compile time)
(GPL source distribution)
Java Runtime: Java(TM) SE Runtime Environment
JVM: Java HotSpot(TM) 64-Bit Server VM
Default Encoding: UTF-8
Language: en
Country: US
--></g><script xmlns=""/></svg>