<?xml version="1.0" encoding="UTF-8" standalone="no"?>
<svg xmlns="http://www.w3.org/2000/svg" xmlns:xlink="http://www.w3.org/1999/xlink" contentScriptType="application/ecmascript" contentStyleType="text/css" height="292px" preserveAspectRatio="none" style="width:1755px;height:292px;background:#FFFFFF;" version="1.1" viewBox="0 0 1755 292" width="1755px" zoomAndPan="magnify" data-cm_cookies_allowed="true"><defs><filter height="300%" id="f6grdej8w296w" width="300%" x="-1" y="-1"><feGaussianBlur result="blurOut" stdDeviation="2.0"/><feColorMatrix in="blurOut" result="blurOut2" type="matrix" values="0 0 0 0 0 0 0 0 0 0 0 0 0 0 0 0 0 0 .4 0"/><feOffset dx="4.0" dy="4.0" in="blurOut2" result="blurOut3"/><feBlend in="SourceGraphic" in2="blurOut3" mode="normal"/></filter></defs><g><!--MD5=[607f22d5b5d9fb945ee02ee68189247c]
class _--><rect codeLine="1" fill="#FEFECE" filter="url(#f6grdej8w296w)" height="60.8047" id="_" style="stroke:#A80036;stroke-width:1.5;" width="216" x="7" y="39"/><ellipse cx="107.75" cy="55" fill="#ADD1B2" rx="11" ry="11" style="stroke:#A80036;stroke-width:1.0;"/><path d="M110.0938,50.6719 C109.1563,50.2344 108.5625,50.0938 107.6875,50.0938 C105.0625,50.0938 103.0625,52.1719 103.0625,54.8906 L103.0625,56.0156 C103.0625,58.5938 105.1719,60.4844 108.0625,60.4844 C109.2813,60.4844 110.4375,60.1875 111.1875,59.6406 C111.7656,59.2344 112.0938,58.7813 112.0938,58.3906 C112.0938,57.9375 111.7031,57.5469 111.2344,57.5469 C111.0156,57.5469 110.8125,57.625 110.625,57.8125 C110.1719,58.2969 110.1719,58.2969 109.9844,58.3906 C109.5625,58.6563 108.875,58.7813 108.1094,58.7813 C106.0625,58.7813 104.7656,57.6875 104.7656,55.9844 L104.7656,54.8906 C104.7656,53.1094 106.0156,51.7969 107.75,51.7969 C108.3281,51.7969 108.9375,51.9531 109.4063,52.2031 C109.8906,52.4844 110.0625,52.7031 110.1563,53.1094 C110.2188,53.5156 110.25,53.6406 110.3906,53.7656 C110.5313,53.9063 110.7656,54.0156 110.9844,54.0156 C111.25,54.0156 111.5156,53.875 111.6875,53.6563 C111.7969,53.5 111.8281,53.3125 111.8281,52.8906 L111.8281,51.4688 C111.8281,51.0313 111.8125,50.9063 111.7188,50.75 C111.5625,50.4844 111.2813,50.3438 110.9844,50.3438 C110.6875,50.3438 110.4844,50.4375 110.2656,50.75 L110.0938,50.6719 Z " fill="#000000"/><text fill="#000000" font-family="sans-serif" font-size="12" lengthAdjust="spacing" textLength="6" x="128.25" y="59.1543">_</text><line style="stroke:#A80036;stroke-width:1.5;" x1="8" x2="222" y1="71" y2="71"/><line style="stroke:#A80036;stroke-width:1.5;" x1="8" x2="222" y1="79" y2="79"/><text fill="#000000" font-family="sans-serif" font-size="11" lengthAdjust="spacing" textLength="204" x="13" y="93.2104">initGL(HTMLCanvasElement canvas)</text><!--MD5=[1b1562314ef50edf921bad0cd204186a]
class World--><rect codeLine="5" fill="#FEFECE" filter="url(#f6grdej8w296w)" height="124.8281" id="World" style="stroke:#A80036;stroke-width:1.5;" width="334" x="258" y="7"/><ellipse cx="402.75" cy="23" fill="#ADD1B2" rx="11" ry="11" style="stroke:#A80036;stroke-width:1.0;"/><path d="M405.0938,18.6719 C404.1563,18.2344 403.5625,18.0938 402.6875,18.0938 C400.0625,18.0938 398.0625,20.1719 398.0625,22.8906 L398.0625,24.0156 C398.0625,26.5938 400.1719,28.4844 403.0625,28.4844 C404.2813,28.4844 405.4375,28.1875 406.1875,27.6406 C406.7656,27.2344 407.0938,26.7813 407.0938,26.3906 C407.0938,25.9375 406.7031,25.5469 406.2344,25.5469 C406.0156,25.5469 405.8125,25.625 405.625,25.8125 C405.1719,26.2969 405.1719,26.2969 404.9844,26.3906 C404.5625,26.6563 403.875,26.7813 403.1094,26.7813 C401.0625,26.7813 399.7656,25.6875 399.7656,23.9844 L399.7656,22.8906 C399.7656,21.1094 401.0156,19.7969 402.75,19.7969 C403.3281,19.7969 403.9375,19.9531 404.4063,20.2031 C404.8906,20.4844 405.0625,20.7031 405.1563,21.1094 C405.2188,21.5156 405.25,21.6406 405.3906,21.7656 C405.5313,21.9063 405.7656,22.0156 405.9844,22.0156 C406.25,22.0156 406.5156,21.875 406.6875,21.6563 C406.7969,21.5 406.8281,21.3125 406.8281,20.8906 L406.8281,19.4688 C406.8281,19.0313 406.8125,18.9063 406.7188,18.75 C406.5625,18.4844 406.2813,18.3438 405.9844,18.3438 C405.6875,18.3438 405.4844,18.4375 405.2656,18.75 L405.0938,18.6719 Z " fill="#000000"/><text fill="#000000" font-family="sans-serif" font-size="12" lengthAdjust="spacing" textLength="36" x="423.25" y="27.1543">World</text><line style="stroke:#A80036;stroke-width:1.5;" x1="259" x2="591" y1="39" y2="39"/><line style="stroke:#A80036;stroke-width:1.5;" x1="259" x2="591" y1="47" y2="47"/><text fill="#000000" font-family="sans-serif" font-size="11" lengthAdjust="spacing" textLength="228" x="264" y="61.2104">constructor(WebGLRenderingContext gl)</text><text fill="#000000" font-family="sans-serif" font-size="11" lengthAdjust="spacing" textLength="171" x="264" y="74.0151">void addStructure(Structure s)</text><text fill="#000000" font-family="sans-serif" font-size="11" lengthAdjust="spacing" textLength="195" x="264" y="86.8198">void removeStructure(Structure s)</text><text fill="#000000" font-family="sans-serif" font-size="11" lengthAdjust="spacing" textLength="322" x="264" y="99.6245">void setGlobalConfiguration(string configurationId, value)</text><text fill="#000000" font-family="sans-serif" font-size="11" lengthAdjust="spacing" textLength="232" x="264" y="112.4292">void setCamera(Float32Array[16] matrix)</text><text fill="#000000" font-family="sans-serif" font-size="11" lengthAdjust="spacing" textLength="63" x="264" y="125.2339">void draw()</text><!--MD5=[6b13f1b330d33795af281e5c1dfe1e98]
class Resource--><rect codeLine="14" fill="#FEFECE" filter="url(#f6grdej8w296w)" height="73.6094" id="Resource" style="stroke:#A80036;stroke-width:1.5;" width="383" x="627.5" y="32.5"/><ellipse cx="787.25" cy="48.5" fill="#B4A7E5" rx="11" ry="11" style="stroke:#A80036;stroke-width:1.0;"/><path d="M788.2031,45.2813 L789.9219,45.2813 C790.3125,45.2813 790.5,45.25 790.625,45.1719 C790.8906,45.0156 791.0313,44.7344 791.0313,44.4375 C791.0313,44.1719 790.9219,43.9063 790.6875,43.7344 C790.5156,43.625 790.375,43.5938 789.9219,43.5938 L784.7813,43.5938 C784.3438,43.5938 784.2188,43.6094 784.0625,43.7031 C783.8125,43.8594 783.6563,44.1563 783.6563,44.4375 C783.6563,44.7188 783.7969,44.9688 784.0156,45.1406 C784.1719,45.25 784.3594,45.2813 784.7813,45.2813 L786.5,45.2813 L786.5,51.7969 L784.7813,51.7969 C784.3438,51.7969 784.2188,51.8125 784.0625,51.9219 C783.8125,52.0781 783.6563,52.3594 783.6563,52.6563 C783.6563,52.9063 783.7969,53.1719 784.0156,53.3281 C784.1719,53.4531 784.375,53.5 784.7813,53.5 L789.9219,53.5 C790.6719,53.5 791.0313,53.2188 791.0313,52.6563 C791.0313,52.375 790.9219,52.125 790.6875,51.9531 C790.5156,51.8281 790.375,51.7969 789.9219,51.7969 L788.2031,51.7969 L788.2031,45.2813 Z " fill="#000000"/><text fill="#000000" font-family="sans-serif" font-size="12" font-style="italic" lengthAdjust="spacing" textLength="55" x="807.75" y="52.6543">Resource</text><line style="stroke:#A80036;stroke-width:1.5;" x1="628.5" x2="1009.5" y1="64.5" y2="64.5"/><line style="stroke:#A80036;stroke-width:1.5;" x1="628.5" x2="1009.5" y1="72.5" y2="72.5"/><text fill="#000000" font-family="sans-serif" font-size="11" lengthAdjust="spacing" textLength="248" x="633.5" y="86.7104">async void init(WebGLRenderingContext gl)</text><text fill="#000000" font-family="sans-serif" font-size="11" lengthAdjust="spacing" textLength="371" x="633.5" y="99.5151">void draw(Float32Array[16] mObject, Object globalConfigurations)</text><!--MD5=[3915787db80ab162e3259f8f86339844]
class Structure--><rect codeLine="19" fill="#FEFECE" filter="url(#f6grdej8w296w)" height="99.2188" id="Structure" style="stroke:#A80036;stroke-width:1.5;" width="283" x="1381.5" y="20"/><ellipse cx="1489.75" cy="36" fill="#B4A7E5" rx="11" ry="11" style="stroke:#A80036;stroke-width:1.0;"/><path d="M1490.7031,32.7813 L1492.4219,32.7813 C1492.8125,32.7813 1493,32.75 1493.125,32.6719 C1493.3906,32.5156 1493.5313,32.2344 1493.5313,31.9375 C1493.5313,31.6719 1493.4219,31.4063 1493.1875,31.2344 C1493.0156,31.125 1492.875,31.0938 1492.4219,31.0938 L1487.2813,31.0938 C1486.8438,31.0938 1486.7188,31.1094 1486.5625,31.2031 C1486.3125,31.3594 1486.1563,31.6563 1486.1563,31.9375 C1486.1563,32.2188 1486.2969,32.4688 1486.5156,32.6406 C1486.6719,32.75 1486.8594,32.7813 1487.2813,32.7813 L1489,32.7813 L1489,39.2969 L1487.2813,39.2969 C1486.8438,39.2969 1486.7188,39.3125 1486.5625,39.4219 C1486.3125,39.5781 1486.1563,39.8594 1486.1563,40.1563 C1486.1563,40.4063 1486.2969,40.6719 1486.5156,40.8281 C1486.6719,40.9531 1486.875,41 1487.2813,41 L1492.4219,41 C1493.1719,41 1493.5313,40.7188 1493.5313,40.1563 C1493.5313,39.875 1493.4219,39.625 1493.1875,39.4531 C1493.0156,39.3281 1492.875,39.2969 1492.4219,39.2969 L1490.7031,39.2969 L1490.7031,32.7813 Z " fill="#000000"/><text fill="#000000" font-family="sans-serif" font-size="12" font-style="italic" lengthAdjust="spacing" textLength="58" x="1510.25" y="40.1543">Structure</text><line style="stroke:#A80036;stroke-width:1.5;" x1="1382.5" x2="1663.5" y1="52" y2="52"/><line style="stroke:#A80036;stroke-width:1.5;" x1="1382.5" x2="1663.5" y1="60" y2="60"/><text fill="#000000" font-family="sans-serif" font-size="11" lengthAdjust="spacing" textLength="105" x="1387.5" y="74.2104">boolean isVisible()</text><text fill="#000000" font-family="sans-serif" font-size="11" lengthAdjust="spacing" textLength="171" x="1387.5" y="87.0151">Structure[] getSubStructures()</text><text fill="#000000" font-family="sans-serif" font-size="11" lengthAdjust="spacing" textLength="151" x="1387.5" y="99.8198">Resource[] getRecources()</text><text fill="#000000" font-family="sans-serif" font-size="11" lengthAdjust="spacing" textLength="271" x="1387.5" y="112.6245">Float32Array[16]/undefined getTransformation()</text><!--MD5=[67a3c3723659453ae690191f1a1fad3f]
class SimpleStructure--><rect codeLine="25" fill="#FEFECE" filter="url(#f6grdej8w296w)" height="86.4141" id="SimpleStructure" style="stroke:#A80036;stroke-width:1.5;" width="437" x="1304.5" y="192"/><ellipse cx="1470.75" cy="208" fill="#ADD1B2" rx="11" ry="11" style="stroke:#A80036;stroke-width:1.0;"/><path d="M1473.0938,203.6719 C1472.1563,203.2344 1471.5625,203.0938 1470.6875,203.0938 C1468.0625,203.0938 1466.0625,205.1719 1466.0625,207.8906 L1466.0625,209.0156 C1466.0625,211.5938 1468.1719,213.4844 1471.0625,213.4844 C1472.2813,213.4844 1473.4375,213.1875 1474.1875,212.6406 C1474.7656,212.2344 1475.0938,211.7813 1475.0938,211.3906 C1475.0938,210.9375 1474.7031,210.5469 1474.2344,210.5469 C1474.0156,210.5469 1473.8125,210.625 1473.625,210.8125 C1473.1719,211.2969 1473.1719,211.2969 1472.9844,211.3906 C1472.5625,211.6563 1471.875,211.7813 1471.1094,211.7813 C1469.0625,211.7813 1467.7656,210.6875 1467.7656,208.9844 L1467.7656,207.8906 C1467.7656,206.1094 1469.0156,204.7969 1470.75,204.7969 C1471.3281,204.7969 1471.9375,204.9531 1472.4063,205.2031 C1472.8906,205.4844 1473.0625,205.7031 1473.1563,206.1094 C1473.2188,206.5156 1473.25,206.6406 1473.3906,206.7656 C1473.5313,206.9063 1473.7656,207.0156 1473.9844,207.0156 C1474.25,207.0156 1474.5156,206.875 1474.6875,206.6563 C1474.7969,206.5 1474.8281,206.3125 1474.8281,205.8906 L1474.8281,204.4688 C1474.8281,204.0313 1474.8125,203.9063 1474.7188,203.75 C1474.5625,203.4844 1474.2813,203.3438 1473.9844,203.3438 C1473.6875,203.3438 1473.4844,203.4375 1473.2656,203.75 L1473.0938,203.6719 Z " fill="#000000"/><text fill="#000000" font-family="sans-serif" font-size="12" lengthAdjust="spacing" textLength="96" x="1491.25" y="212.1543">SimpleStructure</text><line style="stroke:#A80036;stroke-width:1.5;" x1="1305.5" x2="1740.5" y1="224" y2="224"/><line style="stroke:#A80036;stroke-width:1.5;" x1="1305.5" x2="1740.5" y1="232" y2="232"/><text fill="#000000" font-family="sans-serif" font-size="11" lengthAdjust="spacing" textLength="425" x="1310.5" y="246.2104">constructor(Resource resource, Float32Array[16]/undefined transformation)</text><text fill="#000000" font-family="sans-serif" font-size="11" lengthAdjust="spacing" textLength="186" x="1310.5" y="259.0151">setResource(Resource resource)</text><text fill="#000000" font-family="sans-serif" font-size="11" lengthAdjust="spacing" textLength="352" x="1310.5" y="271.8198">setTransformation(Float32Array[16]/undefined transformation)</text><!--MD5=[69b78f540342a90f1a2ccb9c0211295c]
class TexturedTrianglesResource--><rect codeLine="30" fill="#FEFECE" filter="url(#f6grdej8w296w)" height="60.8047" id="TexturedTrianglesResource" style="stroke:#A80036;stroke-width:1.5;" width="329" x="298.5" y="204.5"/><ellipse cx="375.75" cy="220.5" fill="#ADD1B2" rx="11" ry="11" style="stroke:#A80036;stroke-width:1.0;"/><path d="M378.0938,216.1719 C377.1563,215.7344 376.5625,215.5938 375.6875,215.5938 C373.0625,215.5938 371.0625,217.6719 371.0625,220.3906 L371.0625,221.5156 C371.0625,224.0938 373.1719,225.9844 376.0625,225.9844 C377.2813,225.9844 378.4375,225.6875 379.1875,225.1406 C379.7656,224.7344 380.0938,224.2813 380.0938,223.8906 C380.0938,223.4375 379.7031,223.0469 379.2344,223.0469 C379.0156,223.0469 378.8125,223.125 378.625,223.3125 C378.1719,223.7969 378.1719,223.7969 377.9844,223.8906 C377.5625,224.1563 376.875,224.2813 376.1094,224.2813 C374.0625,224.2813 372.7656,223.1875 372.7656,221.4844 L372.7656,220.3906 C372.7656,218.6094 374.0156,217.2969 375.75,217.2969 C376.3281,217.2969 376.9375,217.4531 377.4063,217.7031 C377.8906,217.9844 378.0625,218.2031 378.1563,218.6094 C378.2188,219.0156 378.25,219.1406 378.3906,219.2656 C378.5313,219.4063 378.7656,219.5156 378.9844,219.5156 C379.25,219.5156 379.5156,219.375 379.6875,219.1563 C379.7969,219 379.8281,218.8125 379.8281,218.3906 L379.8281,216.9688 C379.8281,216.5313 379.8125,216.4063 379.7188,216.25 C379.5625,215.9844 379.2813,215.8438 378.9844,215.8438 C378.6875,215.8438 378.4844,215.9375 378.2656,216.25 L378.0938,216.1719 Z " fill="#000000"/><text fill="#000000" font-family="sans-serif" font-size="12" lengthAdjust="spacing" textLength="166" x="396.25" y="224.6543">TexturedTrianglesResource</text><line style="stroke:#A80036;stroke-width:1.5;" x1="299.5" x2="626.5" y1="236.5" y2="236.5"/><line style="stroke:#A80036;stroke-width:1.5;" x1="299.5" x2="626.5" y1="244.5" y2="244.5"/><text fill="#000000" font-family="sans-serif" font-size="11" lengthAdjust="spacing" textLength="317" x="304.5" y="258.7104">constructor(Object triangles,HTMLImageElement image)</text><!--MD5=[b469d09f1becea3254a695b286c6edac]
class ShaderTrianglesResource--><rect codeLine="33" fill="#FEFECE" filter="url(#f6grdej8w296w)" height="60.8047" id="ShaderTrianglesResource" style="stroke:#A80036;stroke-width:1.5;" width="313" x="662.5" y="204.5"/><ellipse cx="737.25" cy="220.5" fill="#ADD1B2" rx="11" ry="11" style="stroke:#A80036;stroke-width:1.0;"/><path d="M739.5938,216.1719 C738.6563,215.7344 738.0625,215.5938 737.1875,215.5938 C734.5625,215.5938 732.5625,217.6719 732.5625,220.3906 L732.5625,221.5156 C732.5625,224.0938 734.6719,225.9844 737.5625,225.9844 C738.7813,225.9844 739.9375,225.6875 740.6875,225.1406 C741.2656,224.7344 741.5938,224.2813 741.5938,223.8906 C741.5938,223.4375 741.2031,223.0469 740.7344,223.0469 C740.5156,223.0469 740.3125,223.125 740.125,223.3125 C739.6719,223.7969 739.6719,223.7969 739.4844,223.8906 C739.0625,224.1563 738.375,224.2813 737.6094,224.2813 C735.5625,224.2813 734.2656,223.1875 734.2656,221.4844 L734.2656,220.3906 C734.2656,218.6094 735.5156,217.2969 737.25,217.2969 C737.8281,217.2969 738.4375,217.4531 738.9063,217.7031 C739.3906,217.9844 739.5625,218.2031 739.6563,218.6094 C739.7188,219.0156 739.75,219.1406 739.8906,219.2656 C740.0313,219.4063 740.2656,219.5156 740.4844,219.5156 C740.75,219.5156 741.0156,219.375 741.1875,219.1563 C741.2969,219 741.3281,218.8125 741.3281,218.3906 L741.3281,216.9688 C741.3281,216.5313 741.3125,216.4063 741.2188,216.25 C741.0625,215.9844 740.7813,215.8438 740.4844,215.8438 C740.1875,215.8438 739.9844,215.9375 739.7656,216.25 L739.5938,216.1719 Z " fill="#000000"/><text fill="#000000" font-family="sans-serif" font-size="12" lengthAdjust="spacing" textLength="155" x="757.75" y="224.6543">ShaderTrianglesResource</text><line style="stroke:#A80036;stroke-width:1.5;" x1="663.5" x2="974.5" y1="236.5" y2="236.5"/><line style="stroke:#A80036;stroke-width:1.5;" x1="663.5" x2="974.5" y1="244.5" y2="244.5"/><text fill="#000000" font-family="sans-serif" font-size="11" lengthAdjust="spacing" textLength="301" x="668.5" y="258.7104">constructor(Object triangles,WebGLProgram program)</text><!--MD5=[03943f41a989d2c58cefb990bb984362]
class ShadersTrianglesResource--><rect codeLine="36" fill="#FEFECE" filter="url(#f6grdej8w296w)" height="60.8047" id="ShadersTrianglesResource" style="stroke:#A80036;stroke-width:1.5;" width="258" x="1011" y="204.5"/><ellipse cx="1054.8" cy="220.5" fill="#ADD1B2" rx="11" ry="11" style="stroke:#A80036;stroke-width:1.0;"/><path d="M1057.1438,216.1719 C1056.2063,215.7344 1055.6125,215.5938 1054.7375,215.5938 C1052.1125,215.5938 1050.1125,217.6719 1050.1125,220.3906 L1050.1125,221.5156 C1050.1125,224.0938 1052.2219,225.9844 1055.1125,225.9844 C1056.3313,225.9844 1057.4875,225.6875 1058.2375,225.1406 C1058.8156,224.7344 1059.1438,224.2813 1059.1438,223.8906 C1059.1438,223.4375 1058.7531,223.0469 1058.2844,223.0469 C1058.0656,223.0469 1057.8625,223.125 1057.675,223.3125 C1057.2219,223.7969 1057.2219,223.7969 1057.0344,223.8906 C1056.6125,224.1563 1055.925,224.2813 1055.1594,224.2813 C1053.1125,224.2813 1051.8156,223.1875 1051.8156,221.4844 L1051.8156,220.3906 C1051.8156,218.6094 1053.0656,217.2969 1054.8,217.2969 C1055.3781,217.2969 1055.9875,217.4531 1056.4563,217.7031 C1056.9406,217.9844 1057.1125,218.2031 1057.2063,218.6094 C1057.2688,219.0156 1057.3,219.1406 1057.4406,219.2656 C1057.5813,219.4063 1057.8156,219.5156 1058.0344,219.5156 C1058.3,219.5156 1058.5656,219.375 1058.7375,219.1563 C1058.8469,219 1058.8781,218.8125 1058.8781,218.3906 L1058.8781,216.9688 C1058.8781,216.5313 1058.8625,216.4063 1058.7688,216.25 C1058.6125,215.9844 1058.3313,215.8438 1058.0344,215.8438 C1057.7375,215.8438 1057.5344,215.9375 1057.3156,216.25 L1057.1438,216.1719 Z " fill="#000000"/><text fill="#000000" font-family="sans-serif" font-size="12" lengthAdjust="spacing" textLength="162" x="1075.2" y="224.6543">ShadersTrianglesResource</text><line style="stroke:#A80036;stroke-width:1.5;" x1="1012" x2="1268" y1="236.5" y2="236.5"/><line style="stroke:#A80036;stroke-width:1.5;" x1="1012" x2="1268" y1="244.5" y2="244.5"/><text fill="#000000" font-family="sans-serif" font-size="11" lengthAdjust="spacing" textLength="246" x="1017" y="258.7104">constructor(ShaderTrianglesResource[] res)</text><!--MD5=[a8374e5ee3b184c6653cc0cd8f529f06]
reverse link Structure to SimpleStructure--><path d="M1523,139.163 C1523,157.084 1523,175.866 1523,191.9428 " fill="none" id="Structure-backto-SimpleStructure" style="stroke:#A80036;stroke-width:1.0;stroke-dasharray:7.0,7.0;"/><polygon fill="none" points="1516,139.113,1523,119.113,1530,139.113,1516,139.113" style="stroke:#A80036;stroke-width:1.0;"/><!--MD5=[a7718df0e16a3f99e8a6c8b4a037c508]
reverse link Resource to TexturedTrianglesResource--><path d="M722.216,114.95 C660.311,143.381 581.724,179.4735 527.394,204.4256 " fill="none" id="Resource-backto-TexturedTrianglesResource" style="stroke:#A80036;stroke-width:1.0;stroke-dasharray:7.0,7.0;"/><polygon fill="none" points="719.337,108.569,740.434,106.583,725.18,121.292,719.337,108.569" style="stroke:#A80036;stroke-width:1.0;"/><!--MD5=[1f8ae3c5410afdd7fcb0e6b8ec00faab]
reverse link Resource to ShaderTrianglesResource--><path d="M819,127.046 C819,153.059 819,182.8461 819,204.3677 " fill="none" id="Resource-backto-ShaderTrianglesResource" style="stroke:#A80036;stroke-width:1.0;stroke-dasharray:7.0,7.0;"/><polygon fill="none" points="812,126.786,819,106.786,826,126.786,812,126.786" style="stroke:#A80036;stroke-width:1.0;"/><!--MD5=[04ec4abea69e165c0756e918c81afdac]
reverse link Resource to ShadersTrianglesResource--><path d="M907.713,115.685 C963.305,144.001 1033.37,179.6882 1081.94,204.4256 " fill="none" id="Resource-backto-ShadersTrianglesResource" style="stroke:#A80036;stroke-width:1.0;stroke-dasharray:7.0,7.0;"/><polygon fill="none" points="904.487,121.898,889.842,106.583,910.841,109.423,904.487,121.898" style="stroke:#A80036;stroke-width:1.0;"/><!--MD5=[5ac21194ffa53015db95268f5db3f6eb]
@startuml
class _ {
   initGL(HTMLCanvasElement canvas)
}

class World {
   constructor(WebGLRenderingContext gl)
   void addStructure(Structure s)
   void removeStructure(Structure s)
   void setGlobalConfiguration(string configurationId, value)
   void setCamera(Float32Array[16] matrix)
   void draw()
}

interface Resource {
   async void init(WebGLRenderingContext gl)
   void draw(Float32Array[16] mObject, Object globalConfigurations)
}

interface Structure {
   boolean isVisible()
   Structure[] getSubStructures()
   Resource[] getRecources()
   Float32Array[16]/undefined getTransformation()
}
class SimpleStructure implements Structure {
   constructor(Resource resource, Float32Array[16]/undefined transformation)
   setResource(Resource resource)
   setTransformation(Float32Array[16]/undefined transformation)
}
class TexturedTrianglesResource implements Resource {
   constructor(Object triangles,HTMLImageElement image)
}
class ShaderTrianglesResource implements Resource {
   constructor(Object triangles,WebGLProgram program)
}
class ShadersTrianglesResource implements Resource {
   constructor(ShaderTrianglesResource[] res)
}
@enduml

PlantUML version 1.2021.17beta9(Unknown compile time)
(GPL source distribution)
Java Runtime: Java(TM) SE Runtime Environment
JVM: Java HotSpot(TM) 64-Bit Server VM
Default Encoding: UTF-8
Language: en
Country: US
--></g><script xmlns=""/></svg>